<svg xmlns="http://www.w3.org/2000/svg" viewBox="0 0 387.7 107.5" width="387.7" height="107.5">
<rect x="0" y="0" width="387.7" height="107.5" fill="white"/>
<polygon points="53.87,83.49 64.71,81.46 74.08,75.66 80.73,66.86 83.74,56.26 82.73,45.28 77.81,35.41 69.66,27.98 59.38,24.0 48.36,24.0 38.08,27.98 29.93,35.41 25.02,45.28 24.0,56.26 27.02,66.86 33.66,75.66 43.03,81.46 53.87,83.49" fill="red"/>
<line x1="53.87" y1="83.49" x2="64.71" y2="81.46" stroke="black" stroke-width="2.0" stroke-linecap="round"/>
<line x1="64.71" y1="81.46" x2="74.08" y2="75.66" stroke="black" stroke-width="2.0" stroke-linecap="round"/>
<line x1="74.08" y1="75.66" x2="80.73" y2="66.86" stroke="black" stroke-width="2.0" stroke-linecap="round"/>
<line x1="80.73" y1="66.86" x2="83.74" y2="56.26" stroke="black" stroke-width="2.0" stroke-linecap="round"/>
<line x1="83.74" y1="56.26" x2="82.73" y2="45.28" stroke="black" stroke-width="2.0" stroke-linecap="round"/>
<line x1="82.73" y1="45.28" x2="77.81" y2="35.41" stroke="black" stroke-width="2.0" stroke-linecap="round"/>
<line x1="77.81" y1="35.41" x2="69.66" y2="27.98" stroke="black" stroke-width="2.0" stroke-linecap="round"/>
<line x1="69.66" y1="27.98" x2="59.38" y2="24.0" stroke="black" stroke-width="2.0" stroke-linecap="round"/>
<line x1="59.38" y1="24.0" x2="48.36" y2="24.0" stroke="black" stroke-width="2.0" stroke-linecap="round"/>
<line x1="48.36" y1="24.0" x2="38.08" y2="27.98" stroke="black" stroke-width="2.0" stroke-linecap="round"/>
<line x1="38.08" y1="27.98" x2="29.93" y2="35.41" stroke="black" stroke-width="2.0" stroke-linecap="round"/>
<line x1="29.93" y1="35.41" x2="25.02" y2="45.28" stroke="black" stroke-width="2.0" stroke-linecap="round"/>
<line x1="25.02" y1="45.28" x2="24.0" y2="56.26" stroke="black" stroke-width="2.0" stroke-linecap="round"/>
<line x1="24.0" y1="56.26" x2="27.02" y2="66.86" stroke="black" stroke-width="2.0" stroke-linecap="round"/>
<line x1="27.02" y1="66.86" x2="33.66" y2="75.66" stroke="black" stroke-width="2.0" stroke-linecap="round"/>
<line x1="33.66" y1="75.66" x2="43.03" y2="81.46" stroke="black" stroke-width="2.0" stroke-linecap="round"/>
<line x1="43.03" y1="81.46" x2="53.87" y2="83.49" stroke="black" stroke-width="2.0" stroke-linecap="round"/>
<polygon points="123.87,83.49 134.71,81.46 144.08,75.66 150.73,66.86 153.74,56.26 152.73,45.28 147.81,35.41 139.66,27.98 129.38,24.0 118.36,24.0 108.08,27.98 99.93,35.41 95.02,45.28 94.0,56.26 97.02,66.86 103.66,75.66 113.03,81.46 123.87,83.49" fill="orange"/>
<line x1="123.87" y1="83.49" x2="134.71" y2="81.46" stroke="black" stroke-width="2.0" stroke-linecap="round"/>
<line x1="134.71" y1="81.46" x2="144.08" y2="75.66" stroke="black" stroke-width="2.0" stroke-linecap="round"/>
<line x1="144.08" y1="75.66" x2="150.73" y2="66.86" stroke="black" stroke-width="2.0" stroke-linecap="round"/>
<line x1="150.73" y1="66.86" x2="153.74" y2="56.26" stroke="black" stroke-width="2.0" stroke-linecap="round"/>
<line x1="153.74" y1="56.26" x2="152.73" y2="45.28" stroke="black" stroke-width="2.0" stroke-linecap="round"/>
<line x1="152.73" y1="45.28" x2="147.81" y2="35.41" stroke="black" stroke-width="2.0" stroke-linecap="round"/>
<line x1="147.81" y1="35.41" x2="139.66" y2="27.98" stroke="black" stroke-width="2.0" stroke-linecap="round"/>
<line x1="139.66" y1="27.98" x2="129.38" y2="24.0" stroke="black" stroke-width="2.0" stroke-linecap="round"/>
<line x1="129.38" y1="24.0" x2="118.36" y2="24.0" stroke="black" stroke-width="2.0" stroke-linecap="round"/>
<line x1="118.36" y1="24.0" x2="108.08" y2="27.98" stroke="black" stroke-width="2.0" stroke-linecap="round"/>
<line x1="108.08" y1="27.98" x2="99.93" y2="35.41" stroke="black" stroke-width="2.0" stroke-linecap="round"/>
<line x1="99.93" y1="35.41" x2="95.02" y2="45.28" stroke="black" stroke-width="2.0" stroke-linecap="round"/>
<line x1="95.02" y1="45.28" x2="94.0" y2="56.26" stroke="black" stroke-width="2.0" stroke-linecap="round"/>
<line x1="94.0" y1="56.26" x2="97.02" y2="66.86" stroke="black" stroke-width="2.0" stroke-linecap="round"/>
<line x1="97.02" y1="66.86" x2="103.66" y2="75.66" stroke="black" stroke-width="2.0" stroke-linecap="round"/>
<line x1="103.66" y1="75.66" x2="113.03" y2="81.46" stroke="black" stroke-width="2.0" stroke-linecap="round"/>
<line x1="113.03" y1="81.46" x2="123.87" y2="83.49" stroke="black" stroke-width="2.0" stroke-linecap="round"/>
<polygon points="193.87,83.49 204.71,81.46 214.08,75.66 220.73,66.86 223.74,56.26 222.73,45.28 217.81,35.41 209.66,27.98 199.38,24.0 188.36,24.0 178.08,27.98 169.93,35.41 165.02,45.28 164.0,56.26 167.02,66.86 173.66,75.66 183.03,81.46 193.87,83.49" fill="yellow"/>
<line x1="193.87" y1="83.49" x2="204.71" y2="81.46" stroke="black" stroke-width="2.0" stroke-linecap="round"/>
<line x1="204.71" y1="81.46" x2="214.08" y2="75.66" stroke="black" stroke-width="2.0" stroke-linecap="round"/>
<line x1="214.08" y1="75.66" x2="220.73" y2="66.86" stroke="black" stroke-width="2.0" stroke-linecap="round"/>
<line x1="220.73" y1="66.86" x2="223.74" y2="56.26" stroke="black" stroke-width="2.0" stroke-linecap="round"/>
<line x1="223.74" y1="56.26" x2="222.73" y2="45.28" stroke="black" stroke-width="2.0" stroke-linecap="round"/>
<line x1="222.73" y1="45.28" x2="217.81" y2="35.41" stroke="black" stroke-width="2.0" stroke-linecap="round"/>
<line x1="217.81" y1="35.41" x2="209.66" y2="27.98" stroke="black" stroke-width="2.0" stroke-linecap="round"/>
<line x1="209.66" y1="27.98" x2="199.38" y2="24.0" stroke="black" stroke-width="2.0" stroke-linecap="round"/>
<line x1="199.38" y1="24.0" x2="188.36" y2="24.0" stroke="black" stroke-width="2.0" stroke-linecap="round"/>
<line x1="188.36" y1="24.0" x2="178.08" y2="27.98" stroke="black" stroke-width="2.0" stroke-linecap="round"/>
<line x1="178.08" y1="27.98" x2="169.93" y2="35.41" stroke="black" stroke-width="2.0" stroke-linecap="round"/>
<line x1="169.93" y1="35.41" x2="165.02" y2="45.28" stroke="black" stroke-width="2.0" stroke-linecap="round"/>
<line x1="165.02" y1="45.28" x2="164.0" y2="56.26" stroke="black" stroke-width="2.0" stroke-linecap="round"/>
<line x1="164.0" y1="56.26" x2="167.02" y2="66.86" stroke="black" stroke-width="2.0" stroke-linecap="round"/>
<line x1="167.02" y1="66.86" x2="173.66" y2="75.66" stroke="black" stroke-width="2.0" stroke-linecap="round"/>
<line x1="173.66" y1="75.66" x2="183.03" y2="81.46" stroke="black" stroke-width="2.0" stroke-linecap="round"/>
<line x1="183.03" y1="81.46" x2="193.87" y2="83.49" stroke="black" stroke-width="2.0" stroke-linecap="round"/>
<polygon points="263.87,83.49 274.71,81.46 284.08,75.66 290.73,66.86 293.74,56.26 292.73,45.28 287.81,35.41 279.66,27.98 269.38,24.0 258.36,24.0 248.08,27.98 239.93,35.41 235.02,45.28 234.0,56.26 237.02,66.86 243.66,75.66 253.03,81.46 263.87,83.49" fill="green"/>
<line x1="263.87" y1="83.49" x2="274.71" y2="81.46" stroke="black" stroke-width="2.0" stroke-linecap="round"/>
<line x1="274.71" y1="81.46" x2="284.08" y2="75.66" stroke="black" stroke-width="2.0" stroke-linecap="round"/>
<line x1="284.08" y1="75.66" x2="290.73" y2="66.86" stroke="black" stroke-width="2.0" stroke-linecap="round"/>
<line x1="290.73" y1="66.86" x2="293.74" y2="56.26" stroke="black" stroke-width="2.0" stroke-linecap="round"/>
<line x1="293.74" y1="56.26" x2="292.73" y2="45.28" stroke="black" stroke-width="2.0" stroke-linecap="round"/>
<line x1="292.73" y1="45.28" x2="287.81" y2="35.41" stroke="black" stroke-width="2.0" stroke-linecap="round"/>
<line x1="287.81" y1="35.41" x2="279.66" y2="27.98" stroke="black" stroke-width="2.0" stroke-linecap="round"/>
<line x1="279.66" y1="27.98" x2="269.38" y2="24.0" stroke="black" stroke-width="2.0" stroke-linecap="round"/>
<line x1="269.38" y1="24.0" x2="258.36" y2="24.0" stroke="black" stroke-width="2.0" stroke-linecap="round"/>
<line x1="258.36" y1="24.0" x2="248.08" y2="27.98" stroke="black" stroke-width="2.0" stroke-linecap="round"/>
<line x1="248.08" y1="27.98" x2="239.93" y2="35.41" stroke="black" stroke-width="2.0" stroke-linecap="round"/>
<line x1="239.93" y1="35.41" x2="235.02" y2="45.28" stroke="black" stroke-width="2.0" stroke-linecap="round"/>
<line x1="235.02" y1="45.28" x2="234.0" y2="56.26" stroke="black" stroke-width="2.0" stroke-linecap="round"/>
<line x1="234.0" y1="56.26" x2="237.02" y2="66.86" stroke="black" stroke-width="2.0" stroke-linecap="round"/>
<line x1="237.02" y1="66.86" x2="243.66" y2="75.66" stroke="black" stroke-width="2.0" stroke-linecap="round"/>
<line x1="243.66" y1="75.66" x2="253.03" y2="81.46" stroke="black" stroke-width="2.0" stroke-linecap="round"/>
<line x1="253.03" y1="81.46" x2="263.87" y2="83.49" stroke="black" stroke-width="2.0" stroke-linecap="round"/>
<polygon points="333.87,83.49 344.71,81.46 354.08,75.66 360.73,66.86 363.74,56.26 362.73,45.28 357.81,35.41 349.66,27.98 339.38,24.0 328.36,24.0 318.08,27.98 309.93,35.41 305.02,45.28 304.0,56.26 307.02,66.86 313.66,75.66 323.03,81.46 333.87,83.49" fill="blue"/>
<line x1="333.87" y1="83.49" x2="344.71" y2="81.46" stroke="black" stroke-width="2.0" stroke-linecap="round"/>
<line x1="344.71" y1="81.46" x2="354.08" y2="75.66" stroke="black" stroke-width="2.0" stroke-linecap="round"/>
<line x1="354.08" y1="75.66" x2="360.73" y2="66.86" stroke="black" stroke-width="2.0" stroke-linecap="round"/>
<line x1="360.73" y1="66.86" x2="363.74" y2="56.26" stroke="black" stroke-width="2.0" stroke-linecap="round"/>
<line x1="363.74" y1="56.26" x2="362.73" y2="45.28" stroke="black" stroke-width="2.0" stroke-linecap="round"/>
<line x1="362.73" y1="45.28" x2="357.81" y2="35.41" stroke="black" stroke-width="2.0" stroke-linecap="round"/>
<line x1="357.81" y1="35.41" x2="349.66" y2="27.98" stroke="black" stroke-width="2.0" stroke-linecap="round"/>
<line x1="349.66" y1="27.98" x2="339.38" y2="24.0" stroke="black" stroke-width="2.0" stroke-linecap="round"/>
<line x1="339.38" y1="24.0" x2="328.36" y2="24.0" stroke="black" stroke-width="2.0" stroke-linecap="round"/>
<line x1="328.36" y1="24.0" x2="318.08" y2="27.98" stroke="black" stroke-width="2.0" stroke-linecap="round"/>
<line x1="318.08" y1="27.98" x2="309.93" y2="35.41" stroke="black" stroke-width="2.0" stroke-linecap="round"/>
<line x1="309.93" y1="35.41" x2="305.02" y2="45.28" stroke="black" stroke-width="2.0" stroke-linecap="round"/>
<line x1="305.02" y1="45.28" x2="304.0" y2="56.26" stroke="black" stroke-width="2.0" stroke-linecap="round"/>
<line x1="304.0" y1="56.26" x2="307.02" y2="66.86" stroke="black" stroke-width="2.0" stroke-linecap="round"/>
<line x1="307.02" y1="66.86" x2="313.66" y2="75.66" stroke="black" stroke-width="2.0" stroke-linecap="round"/>
<line x1="313.66" y1="75.66" x2="323.03" y2="81.46" stroke="black" stroke-width="2.0" stroke-linecap="round"/>
<line x1="323.03" y1="81.46" x2="333.87" y2="83.49" stroke="black" stroke-width="2.0" stroke-linecap="round"/>
</svg>