<svg xmlns="http://www.w3.org/2000/svg" viewBox="0 0 427.4 464.7" width="427.4" height="464.7">
<rect x="0" y="0" width="427.4" height="464.7" fill="black"/>
<line x1="270.73" y1="108.99" x2="244.23" y2="151.39" stroke="white" stroke-width="2.0" stroke-linecap="round"/>
<line x1="244.23" y1="151.39" x2="270.73" y2="108.99" stroke="white" stroke-width="2.0" stroke-linecap="round"/>
<line x1="270.73" y1="108.99" x2="262.04" y2="158.23" stroke="green" stroke-width="2.0" stroke-linecap="round"/>
<line x1="262.04" y1="158.23" x2="270.73" y2="108.99" stroke="green" stroke-width="2.0" stroke-linecap="round"/>
<line x1="270.73" y1="108.99" x2="295.73" y2="152.29" stroke="white" stroke-width="2.0" stroke-linecap="round"/>
<line x1="295.73" y1="152.29" x2="270.73" y2="108.99" stroke="white" stroke-width="2.0" stroke-linecap="round"/>
<line x1="270.73" y1="108.99" x2="267.24" y2="59.11" stroke="yellow" stroke-width="2.0" stroke-linecap="round"/>
<line x1="267.24" y1="59.11" x2="270.73" y2="108.99" stroke="yellow" stroke-width="2.0" stroke-linecap="round"/>
<line x1="270.73" y1="108.99" x2="263.77" y2="158.51" stroke="white" stroke-width="2.0" stroke-linecap="round"/>
<line x1="263.77" y1="158.51" x2="270.73" y2="108.99" stroke="white" stroke-width="2.0" stroke-linecap="round"/>
<line x1="270.73" y1="108.99" x2="310.13" y2="139.78" stroke="green" stroke-width="2.0" stroke-linecap="round"/>
<line x1="310.13" y1="139.78" x2="270.73" y2="108.99" stroke="green" stroke-width="2.0" stroke-linecap="round"/>
<line x1="270.73" y1="108.99" x2="266.37" y2="59.18" stroke="orange" stroke-width="2.0" stroke-linecap="round"/>
<line x1="266.37" y1="59.18" x2="270.73" y2="108.99" stroke="orange" stroke-width="2.0" stroke-linecap="round"/>
<line x1="270.73" y1="108.99" x2="237.27" y2="146.15" stroke="red" stroke-width="2.0" stroke-linecap="round"/>
<line x1="237.27" y1="146.15" x2="270.73" y2="108.99" stroke="red" stroke-width="2.0" stroke-linecap="round"/>
<line x1="270.73" y1="108.99" x2="286.18" y2="61.44" stroke="blue" stroke-width="2.0" stroke-linecap="round"/>
<line x1="286.18" y1="61.44" x2="270.73" y2="108.99" stroke="blue" stroke-width="2.0" stroke-linecap="round"/>
<line x1="270.73" y1="108.99" x2="275.08" y2="158.8" stroke="red" stroke-width="2.0" stroke-linecap="round"/>
<line x1="275.08" y1="158.8" x2="270.73" y2="108.99" stroke="red" stroke-width="2.0" stroke-linecap="round"/>
<line x1="270.73" y1="108.99" x2="320.54" y2="113.35" stroke="white" stroke-width="2.0" stroke-linecap="round"/>
<line x1="320.54" y1="113.35" x2="270.73" y2="108.99" stroke="white" stroke-width="2.0" stroke-linecap="round"/>
<line x1="270.73" y1="108.99" x2="317.41" y2="91.07" stroke="pink" stroke-width="2.0" stroke-linecap="round"/>
<line x1="317.41" y1="91.07" x2="270.73" y2="108.99" stroke="pink" stroke-width="2.0" stroke-linecap="round"/>
<line x1="270.73" y1="108.99" x2="224.37" y2="127.72" stroke="orange" stroke-width="2.0" stroke-linecap="round"/>
<line x1="224.37" y1="127.72" x2="270.73" y2="108.99" stroke="orange" stroke-width="2.0" stroke-linecap="round"/>
<line x1="270.73" y1="108.99" x2="315.67" y2="130.91" stroke="green" stroke-width="2.0" stroke-linecap="round"/>
<line x1="315.67" y1="130.91" x2="270.73" y2="108.99" stroke="green" stroke-width="2.0" stroke-linecap="round"/>
<line x1="270.73" y1="108.99" x2="306.08" y2="144.35" stroke="pink" stroke-width="2.0" stroke-linecap="round"/>
<line x1="306.08" y1="144.35" x2="270.73" y2="108.99" stroke="pink" stroke-width="2.0" stroke-linecap="round"/>
<line x1="270.73" y1="108.99" x2="279.41" y2="59.75" stroke="pink" stroke-width="2.0" stroke-linecap="round"/>
<line x1="279.41" y1="59.75" x2="270.73" y2="108.99" stroke="pink" stroke-width="2.0" stroke-linecap="round"/>
<line x1="270.73" y1="108.99" x2="320.35" y2="102.9" stroke="orange" stroke-width="2.0" stroke-linecap="round"/>
<line x1="320.35" y1="102.9" x2="270.73" y2="108.99" stroke="orange" stroke-width="2.0" stroke-linecap="round"/>
<line x1="270.73" y1="108.99" x2="270.73" y2="158.99" stroke="white" stroke-width="2.0" stroke-linecap="round"/>
<line x1="270.73" y1="158.99" x2="270.73" y2="108.99" stroke="white" stroke-width="2.0" stroke-linecap="round"/>
<line x1="270.73" y1="108.99" x2="314.03" y2="83.99" stroke="red" stroke-width="2.0" stroke-linecap="round"/>
<line x1="314.03" y1="83.99" x2="270.73" y2="108.99" stroke="red" stroke-width="2.0" stroke-linecap="round"/>
<line x1="270.73" y1="108.99" x2="264.63" y2="59.37" stroke="red" stroke-width="2.0" stroke-linecap="round"/>
<line x1="264.63" y1="59.37" x2="270.73" y2="108.99" stroke="red" stroke-width="2.0" stroke-linecap="round"/>
<line x1="162.73" y1="87.99" x2="135.49" y2="129.93" stroke="red" stroke-width="2.0" stroke-linecap="round"/>
<line x1="135.49" y1="129.93" x2="162.73" y2="87.99" stroke="red" stroke-width="2.0" stroke-linecap="round"/>
<line x1="162.73" y1="87.99" x2="127.37" y2="123.35" stroke="blue" stroke-width="2.0" stroke-linecap="round"/>
<line x1="127.37" y1="123.35" x2="162.73" y2="87.99" stroke="blue" stroke-width="2.0" stroke-linecap="round"/>
<line x1="162.73" y1="87.99" x2="154.04" y2="38.75" stroke="orange" stroke-width="2.0" stroke-linecap="round"/>
<line x1="154.04" y1="38.75" x2="162.73" y2="87.99" stroke="orange" stroke-width="2.0" stroke-linecap="round"/>
<line x1="162.73" y1="87.99" x2="138.49" y2="44.26" stroke="orange" stroke-width="2.0" stroke-linecap="round"/>
<line x1="138.49" y1="44.26" x2="162.73" y2="87.99" stroke="orange" stroke-width="2.0" stroke-linecap="round"/>
<line x1="162.73" y1="87.99" x2="119.42" y2="62.99" stroke="pink" stroke-width="2.0" stroke-linecap="round"/>
<line x1="119.42" y1="62.99" x2="162.73" y2="87.99" stroke="pink" stroke-width="2.0" stroke-linecap="round"/>
<line x1="162.73" y1="87.99" x2="212.7" y2="86.25" stroke="green" stroke-width="2.0" stroke-linecap="round"/>
<line x1="212.7" y1="86.25" x2="162.73" y2="87.99" stroke="green" stroke-width="2.0" stroke-linecap="round"/>
<line x1="162.73" y1="87.99" x2="199.29" y2="53.89" stroke="pink" stroke-width="2.0" stroke-linecap="round"/>
<line x1="199.29" y1="53.89" x2="162.73" y2="87.99" stroke="pink" stroke-width="2.0" stroke-linecap="round"/>
<line x1="162.73" y1="87.99" x2="208.04" y2="109.12" stroke="green" stroke-width="2.0" stroke-linecap="round"/>
<line x1="208.04" y1="109.12" x2="162.73" y2="87.99" stroke="green" stroke-width="2.0" stroke-linecap="round"/>
<line x1="162.73" y1="87.99" x2="118.58" y2="111.47" stroke="blue" stroke-width="2.0" stroke-linecap="round"/>
<line x1="118.58" y1="111.47" x2="162.73" y2="87.99" stroke="blue" stroke-width="2.0" stroke-linecap="round"/>
<line x1="162.73" y1="87.99" x2="199.88" y2="54.54" stroke="orange" stroke-width="2.0" stroke-linecap="round"/>
<line x1="199.88" y1="54.54" x2="162.73" y2="87.99" stroke="orange" stroke-width="2.0" stroke-linecap="round"/>
<line x1="162.73" y1="87.99" x2="130.59" y2="49.69" stroke="pink" stroke-width="2.0" stroke-linecap="round"/>
<line x1="130.59" y1="49.69" x2="162.73" y2="87.99" stroke="pink" stroke-width="2.0" stroke-linecap="round"/>
<line x1="162.73" y1="87.99" x2="140.03" y2="43.44" stroke="blue" stroke-width="2.0" stroke-linecap="round"/>
<line x1="140.03" y1="43.44" x2="162.73" y2="87.99" stroke="blue" stroke-width="2.0" stroke-linecap="round"/>
<line x1="162.73" y1="87.99" x2="120.79" y2="60.76" stroke="orange" stroke-width="2.0" stroke-linecap="round"/>
<line x1="120.79" y1="60.76" x2="162.73" y2="87.99" stroke="orange" stroke-width="2.0" stroke-linecap="round"/>
<line x1="162.73" y1="87.99" x2="203.68" y2="59.31" stroke="red" stroke-width="2.0" stroke-linecap="round"/>
<line x1="203.68" y1="59.31" x2="162.73" y2="87.99" stroke="red" stroke-width="2.0" stroke-linecap="round"/>
<line x1="162.73" y1="87.99" x2="191.4" y2="47.03" stroke="orange" stroke-width="2.0" stroke-linecap="round"/>
<line x1="191.4" y1="47.03" x2="162.73" y2="87.99" stroke="orange" stroke-width="2.0" stroke-linecap="round"/>
<line x1="162.73" y1="87.99" x2="191.4" y2="47.03" stroke="green" stroke-width="2.0" stroke-linecap="round"/>
<line x1="191.4" y1="47.03" x2="162.73" y2="87.99" stroke="green" stroke-width="2.0" stroke-linecap="round"/>
<line x1="162.73" y1="87.99" x2="120.32" y2="61.5" stroke="white" stroke-width="2.0" stroke-linecap="round"/>
<line x1="120.32" y1="61.5" x2="162.73" y2="87.99" stroke="white" stroke-width="2.0" stroke-linecap="round"/>
<line x1="162.73" y1="87.99" x2="204.18" y2="60.03" stroke="green" stroke-width="2.0" stroke-linecap="round"/>
<line x1="204.18" y1="60.03" x2="162.73" y2="87.99" stroke="green" stroke-width="2.0" stroke-linecap="round"/>
<line x1="162.73" y1="87.99" x2="211.97" y2="96.67" stroke="red" stroke-width="2.0" stroke-linecap="round"/>
<line x1="211.97" y1="96.67" x2="162.73" y2="87.99" stroke="red" stroke-width="2.0" stroke-linecap="round"/>
<line x1="162.73" y1="87.99" x2="146.45" y2="40.72" stroke="red" stroke-width="2.0" stroke-linecap="round"/>
<line x1="146.45" y1="40.72" x2="162.73" y2="87.99" stroke="red" stroke-width="2.0" stroke-linecap="round"/>
<line x1="146.73" y1="368.99" x2="97.82" y2="379.39" stroke="green" stroke-width="2.0" stroke-linecap="round"/>
<line x1="97.82" y1="379.39" x2="146.73" y2="368.99" stroke="green" stroke-width="2.0" stroke-linecap="round"/>
<line x1="146.73" y1="368.99" x2="100.7" y2="388.53" stroke="pink" stroke-width="2.0" stroke-linecap="round"/>
<line x1="100.7" y1="388.53" x2="146.73" y2="368.99" stroke="pink" stroke-width="2.0" stroke-linecap="round"/>
<line x1="146.73" y1="368.99" x2="186.66" y2="338.9" stroke="green" stroke-width="2.0" stroke-linecap="round"/>
<line x1="186.66" y1="338.9" x2="146.73" y2="368.99" stroke="green" stroke-width="2.0" stroke-linecap="round"/>
<line x1="146.73" y1="368.99" x2="186.13" y2="399.78" stroke="orange" stroke-width="2.0" stroke-linecap="round"/>
<line x1="186.13" y1="399.78" x2="146.73" y2="368.99" stroke="orange" stroke-width="2.0" stroke-linecap="round"/>
<line x1="146.73" y1="368.99" x2="195.02" y2="381.93" stroke="yellow" stroke-width="2.0" stroke-linecap="round"/>
<line x1="195.02" y1="381.93" x2="146.73" y2="368.99" stroke="yellow" stroke-width="2.0" stroke-linecap="round"/>
<line x1="146.73" y1="368.99" x2="97.21" y2="362.03" stroke="blue" stroke-width="2.0" stroke-linecap="round"/>
<line x1="97.21" y1="362.03" x2="146.73" y2="368.99" stroke="blue" stroke-width="2.0" stroke-linecap="round"/>
<line x1="146.73" y1="368.99" x2="100.05" y2="351.07" stroke="red" stroke-width="2.0" stroke-linecap="round"/>
<line x1="100.05" y1="351.07" x2="146.73" y2="368.99" stroke="red" stroke-width="2.0" stroke-linecap="round"/>
<line x1="146.73" y1="368.99" x2="196.35" y2="362.9" stroke="blue" stroke-width="2.0" stroke-linecap="round"/>
<line x1="196.35" y1="362.9" x2="146.73" y2="368.99" stroke="blue" stroke-width="2.0" stroke-linecap="round"/>
<line x1="146.73" y1="368.99" x2="171.73" y2="325.69" stroke="green" stroke-width="2.0" stroke-linecap="round"/>
<line x1="171.73" y1="325.69" x2="146.73" y2="368.99" stroke="green" stroke-width="2.0" stroke-linecap="round"/>
<line x1="146.73" y1="368.99" x2="117.34" y2="328.54" stroke="yellow" stroke-width="2.0" stroke-linecap="round"/>
<line x1="117.34" y1="328.54" x2="146.73" y2="368.99" stroke="yellow" stroke-width="2.0" stroke-linecap="round"/>
<line x1="146.73" y1="368.99" x2="178.19" y2="330.14" stroke="pink" stroke-width="2.0" stroke-linecap="round"/>
<line x1="178.19" y1="330.14" x2="146.73" y2="368.99" stroke="pink" stroke-width="2.0" stroke-linecap="round"/>
<line x1="146.73" y1="368.99" x2="190.03" y2="343.99" stroke="red" stroke-width="2.0" stroke-linecap="round"/>
<line x1="190.03" y1="343.99" x2="146.73" y2="368.99" stroke="red" stroke-width="2.0" stroke-linecap="round"/>
<line x1="146.73" y1="368.99" x2="128.81" y2="415.67" stroke="green" stroke-width="2.0" stroke-linecap="round"/>
<line x1="128.81" y1="415.67" x2="146.73" y2="368.99" stroke="green" stroke-width="2.0" stroke-linecap="round"/>
<line x1="146.73" y1="368.99" x2="195.81" y2="378.53" stroke="yellow" stroke-width="2.0" stroke-linecap="round"/>
<line x1="195.81" y1="378.53" x2="146.73" y2="368.99" stroke="yellow" stroke-width="2.0" stroke-linecap="round"/>
<line x1="146.73" y1="368.99" x2="141.5" y2="319.27" stroke="orange" stroke-width="2.0" stroke-linecap="round"/>
<line x1="141.5" y1="319.27" x2="146.73" y2="368.99" stroke="orange" stroke-width="2.0" stroke-linecap="round"/>
<line x1="146.73" y1="368.99" x2="138.04" y2="418.23" stroke="green" stroke-width="2.0" stroke-linecap="round"/>
<line x1="138.04" y1="418.23" x2="146.73" y2="368.99" stroke="green" stroke-width="2.0" stroke-linecap="round"/>
<line x1="146.73" y1="368.99" x2="166.26" y2="322.97" stroke="yellow" stroke-width="2.0" stroke-linecap="round"/>
<line x1="166.26" y1="322.97" x2="146.73" y2="368.99" stroke="yellow" stroke-width="2.0" stroke-linecap="round"/>
<line x1="146.73" y1="368.99" x2="189.58" y2="394.74" stroke="green" stroke-width="2.0" stroke-linecap="round"/>
<line x1="189.58" y1="394.74" x2="146.73" y2="368.99" stroke="green" stroke-width="2.0" stroke-linecap="round"/>
<line x1="146.73" y1="368.99" x2="172.48" y2="326.13" stroke="green" stroke-width="2.0" stroke-linecap="round"/>
<line x1="172.48" y1="326.13" x2="146.73" y2="368.99" stroke="green" stroke-width="2.0" stroke-linecap="round"/>
<line x1="146.73" y1="368.99" x2="105.77" y2="397.67" stroke="green" stroke-width="2.0" stroke-linecap="round"/>
<line x1="105.77" y1="397.67" x2="146.73" y2="368.99" stroke="green" stroke-width="2.0" stroke-linecap="round"/>
<line x1="147.73" y1="394.99" x2="174.96" y2="436.93" stroke="blue" stroke-width="2.0" stroke-linecap="round"/>
<line x1="174.96" y1="436.93" x2="147.73" y2="394.99" stroke="blue" stroke-width="2.0" stroke-linecap="round"/>
<line x1="147.73" y1="394.99" x2="196.97" y2="386.31" stroke="blue" stroke-width="2.0" stroke-linecap="round"/>
<line x1="196.97" y1="386.31" x2="147.73" y2="394.99" stroke="blue" stroke-width="2.0" stroke-linecap="round"/>
<line x1="147.73" y1="394.99" x2="143.37" y2="345.18" stroke="yellow" stroke-width="2.0" stroke-linecap="round"/>
<line x1="143.37" y1="345.18" x2="147.73" y2="394.99" stroke="yellow" stroke-width="2.0" stroke-linecap="round"/>
<line x1="147.73" y1="394.99" x2="178.51" y2="434.39" stroke="green" stroke-width="2.0" stroke-linecap="round"/>
<line x1="178.51" y1="434.39" x2="147.73" y2="394.99" stroke="green" stroke-width="2.0" stroke-linecap="round"/>
<line x1="147.73" y1="394.99" x2="168.86" y2="440.31" stroke="pink" stroke-width="2.0" stroke-linecap="round"/>
<line x1="168.86" y1="440.31" x2="147.73" y2="394.99" stroke="pink" stroke-width="2.0" stroke-linecap="round"/>
<line x1="147.73" y1="394.99" x2="194.41" y2="377.07" stroke="red" stroke-width="2.0" stroke-linecap="round"/>
<line x1="194.41" y1="377.07" x2="147.73" y2="394.99" stroke="red" stroke-width="2.0" stroke-linecap="round"/>
<line x1="147.73" y1="394.99" x2="131.45" y2="347.72" stroke="yellow" stroke-width="2.0" stroke-linecap="round"/>
<line x1="131.45" y1="347.72" x2="147.73" y2="394.99" stroke="yellow" stroke-width="2.0" stroke-linecap="round"/>
<line x1="147.73" y1="394.99" x2="114.27" y2="357.84" stroke="green" stroke-width="2.0" stroke-linecap="round"/>
<line x1="114.27" y1="357.84" x2="147.73" y2="394.99" stroke="green" stroke-width="2.0" stroke-linecap="round"/>
<line x1="147.73" y1="394.99" x2="181.18" y2="432.15" stroke="red" stroke-width="2.0" stroke-linecap="round"/>
<line x1="181.18" y1="432.15" x2="147.73" y2="394.99" stroke="red" stroke-width="2.0" stroke-linecap="round"/>
<line x1="147.73" y1="394.99" x2="104.0" y2="370.75" stroke="blue" stroke-width="2.0" stroke-linecap="round"/>
<line x1="104.0" y1="370.75" x2="147.73" y2="394.99" stroke="blue" stroke-width="2.0" stroke-linecap="round"/>
<line x1="147.73" y1="394.99" x2="187.66" y2="364.9" stroke="green" stroke-width="2.0" stroke-linecap="round"/>
<line x1="187.66" y1="364.9" x2="147.73" y2="394.99" stroke="green" stroke-width="2.0" stroke-linecap="round"/>
<line x1="147.73" y1="394.99" x2="182.46" y2="359.03" stroke="red" stroke-width="2.0" stroke-linecap="round"/>
<line x1="182.46" y1="359.03" x2="147.73" y2="394.99" stroke="red" stroke-width="2.0" stroke-linecap="round"/>
<line x1="147.73" y1="394.99" x2="171.2" y2="439.14" stroke="yellow" stroke-width="2.0" stroke-linecap="round"/>
<line x1="171.2" y1="439.14" x2="147.73" y2="394.99" stroke="yellow" stroke-width="2.0" stroke-linecap="round"/>
<line x1="147.73" y1="394.99" x2="119.77" y2="353.54" stroke="pink" stroke-width="2.0" stroke-linecap="round"/>
<line x1="119.77" y1="353.54" x2="147.73" y2="394.99" stroke="pink" stroke-width="2.0" stroke-linecap="round"/>
<line x1="147.73" y1="394.99" x2="177.82" y2="434.92" stroke="red" stroke-width="2.0" stroke-linecap="round"/>
<line x1="177.82" y1="434.92" x2="147.73" y2="394.99" stroke="red" stroke-width="2.0" stroke-linecap="round"/>
<line x1="147.73" y1="394.99" x2="98.49" y2="403.67" stroke="blue" stroke-width="2.0" stroke-linecap="round"/>
<line x1="98.49" y1="403.67" x2="147.73" y2="394.99" stroke="blue" stroke-width="2.0" stroke-linecap="round"/>
<line x1="147.73" y1="394.99" x2="116.94" y2="434.39" stroke="orange" stroke-width="2.0" stroke-linecap="round"/>
<line x1="116.94" y1="434.39" x2="147.73" y2="394.99" stroke="orange" stroke-width="2.0" stroke-linecap="round"/>
<line x1="147.73" y1="394.99" x2="172.73" y2="438.29" stroke="yellow" stroke-width="2.0" stroke-linecap="round"/>
<line x1="172.73" y1="438.29" x2="147.73" y2="394.99" stroke="yellow" stroke-width="2.0" stroke-linecap="round"/>
<line x1="147.73" y1="394.99" x2="168.06" y2="440.67" stroke="green" stroke-width="2.0" stroke-linecap="round"/>
<line x1="168.06" y1="440.67" x2="147.73" y2="394.99" stroke="green" stroke-width="2.0" stroke-linecap="round"/>
<line x1="147.73" y1="394.99" x2="99.91" y2="409.61" stroke="yellow" stroke-width="2.0" stroke-linecap="round"/>
<line x1="99.91" y1="409.61" x2="147.73" y2="394.99" stroke="yellow" stroke-width="2.0" stroke-linecap="round"/>
<line x1="132.73" y1="73.99" x2="86.05" y2="56.07" stroke="yellow" stroke-width="2.0" stroke-linecap="round"/>
<line x1="86.05" y1="56.07" x2="132.73" y2="73.99" stroke="yellow" stroke-width="2.0" stroke-linecap="round"/>
<line x1="132.73" y1="73.99" x2="166.18" y2="111.15" stroke="yellow" stroke-width="2.0" stroke-linecap="round"/>
<line x1="166.18" y1="111.15" x2="132.73" y2="73.99" stroke="yellow" stroke-width="2.0" stroke-linecap="round"/>
<line x1="132.73" y1="73.99" x2="126.63" y2="24.37" stroke="yellow" stroke-width="2.0" stroke-linecap="round"/>
<line x1="126.63" y1="24.37" x2="132.73" y2="73.99" stroke="yellow" stroke-width="2.0" stroke-linecap="round"/>
<line x1="132.73" y1="73.99" x2="172.13" y2="104.78" stroke="yellow" stroke-width="2.0" stroke-linecap="round"/>
<line x1="172.13" y1="104.78" x2="132.73" y2="73.99" stroke="yellow" stroke-width="2.0" stroke-linecap="round"/>
<line x1="132.73" y1="73.99" x2="124.04" y2="24.75" stroke="orange" stroke-width="2.0" stroke-linecap="round"/>
<line x1="124.04" y1="24.75" x2="132.73" y2="73.99" stroke="orange" stroke-width="2.0" stroke-linecap="round"/>
<line x1="132.73" y1="73.99" x2="85.17" y2="89.44" stroke="pink" stroke-width="2.0" stroke-linecap="round"/>
<line x1="85.17" y1="89.44" x2="132.73" y2="73.99" stroke="pink" stroke-width="2.0" stroke-linecap="round"/>
<line x1="132.73" y1="73.99" x2="164.19" y2="112.85" stroke="green" stroke-width="2.0" stroke-linecap="round"/>
<line x1="164.19" y1="112.85" x2="132.73" y2="73.99" stroke="green" stroke-width="2.0" stroke-linecap="round"/>
<line x1="132.73" y1="73.99" x2="91.77" y2="102.67" stroke="red" stroke-width="2.0" stroke-linecap="round"/>
<line x1="91.77" y1="102.67" x2="132.73" y2="73.99" stroke="red" stroke-width="2.0" stroke-linecap="round"/>
<line x1="132.73" y1="73.99" x2="162.82" y2="34.06" stroke="red" stroke-width="2.0" stroke-linecap="round"/>
<line x1="162.82" y1="34.06" x2="132.73" y2="73.99" stroke="red" stroke-width="2.0" stroke-linecap="round"/>
<line x1="132.73" y1="73.99" x2="180.0" y2="57.71" stroke="red" stroke-width="2.0" stroke-linecap="round"/>
<line x1="180.0" y1="57.71" x2="132.73" y2="73.99" stroke="red" stroke-width="2.0" stroke-linecap="round"/>
<line x1="132.73" y1="73.99" x2="100.59" y2="35.69" stroke="orange" stroke-width="2.0" stroke-linecap="round"/>
<line x1="100.59" y1="35.69" x2="132.73" y2="73.99" stroke="orange" stroke-width="2.0" stroke-linecap="round"/>
<line x1="132.73" y1="73.99" x2="182.73" y2="73.99" stroke="yellow" stroke-width="2.0" stroke-linecap="round"/>
<line x1="182.73" y1="73.99" x2="132.73" y2="73.99" stroke="yellow" stroke-width="2.0" stroke-linecap="round"/>
<line x1="132.73" y1="73.99" x2="99.92" y2="36.26" stroke="green" stroke-width="2.0" stroke-linecap="round"/>
<line x1="99.92" y1="36.26" x2="132.73" y2="73.99" stroke="green" stroke-width="2.0" stroke-linecap="round"/>
<line x1="132.73" y1="73.99" x2="161.4" y2="114.95" stroke="green" stroke-width="2.0" stroke-linecap="round"/>
<line x1="161.4" y1="114.95" x2="132.73" y2="73.99" stroke="green" stroke-width="2.0" stroke-linecap="round"/>
<line x1="132.73" y1="73.99" x2="89.42" y2="48.99" stroke="green" stroke-width="2.0" stroke-linecap="round"/>
<line x1="89.42" y1="48.99" x2="132.73" y2="73.99" stroke="green" stroke-width="2.0" stroke-linecap="round"/>
<line x1="132.73" y1="73.99" x2="133.6" y2="24.0" stroke="orange" stroke-width="2.0" stroke-linecap="round"/>
<line x1="133.6" y1="24.0" x2="132.73" y2="73.99" stroke="orange" stroke-width="2.0" stroke-linecap="round"/>
<line x1="132.73" y1="73.99" x2="173.68" y2="45.31" stroke="pink" stroke-width="2.0" stroke-linecap="round"/>
<line x1="173.68" y1="45.31" x2="132.73" y2="73.99" stroke="pink" stroke-width="2.0" stroke-linecap="round"/>
<line x1="132.73" y1="73.99" x2="110.81" y2="29.05" stroke="yellow" stroke-width="2.0" stroke-linecap="round"/>
<line x1="110.81" y1="29.05" x2="132.73" y2="73.99" stroke="yellow" stroke-width="2.0" stroke-linecap="round"/>
<line x1="132.73" y1="73.99" x2="146.51" y2="122.06" stroke="green" stroke-width="2.0" stroke-linecap="round"/>
<line x1="146.51" y1="122.06" x2="132.73" y2="73.99" stroke="green" stroke-width="2.0" stroke-linecap="round"/>
<line x1="132.73" y1="73.99" x2="168.08" y2="109.35" stroke="pink" stroke-width="2.0" stroke-linecap="round"/>
<line x1="168.08" y1="109.35" x2="132.73" y2="73.99" stroke="pink" stroke-width="2.0" stroke-linecap="round"/>
<line x1="353.73" y1="357.99" x2="338.28" y2="310.44" stroke="blue" stroke-width="2.0" stroke-linecap="round"/>
<line x1="338.28" y1="310.44" x2="353.73" y2="357.99" stroke="blue" stroke-width="2.0" stroke-linecap="round"/>
<line x1="353.73" y1="357.99" x2="403.24" y2="351.03" stroke="yellow" stroke-width="2.0" stroke-linecap="round"/>
<line x1="403.24" y1="351.03" x2="353.73" y2="357.99" stroke="yellow" stroke-width="2.0" stroke-linecap="round"/>
<line x1="353.73" y1="357.99" x2="317.16" y2="323.89" stroke="red" stroke-width="2.0" stroke-linecap="round"/>
<line x1="317.16" y1="323.89" x2="353.73" y2="357.99" stroke="red" stroke-width="2.0" stroke-linecap="round"/>
<line x1="353.73" y1="357.99" x2="320.27" y2="395.15" stroke="green" stroke-width="2.0" stroke-linecap="round"/>
<line x1="320.27" y1="395.15" x2="353.73" y2="357.99" stroke="green" stroke-width="2.0" stroke-linecap="round"/>
<line x1="353.73" y1="357.99" x2="397.03" y2="332.99" stroke="yellow" stroke-width="2.0" stroke-linecap="round"/>
<line x1="397.03" y1="332.99" x2="353.73" y2="357.99" stroke="yellow" stroke-width="2.0" stroke-linecap="round"/>
<line x1="353.73" y1="357.99" x2="353.73" y2="307.99" stroke="red" stroke-width="2.0" stroke-linecap="round"/>
<line x1="353.73" y1="307.99" x2="353.73" y2="357.99" stroke="red" stroke-width="2.0" stroke-linecap="round"/>
<line x1="353.73" y1="357.99" x2="304.21" y2="364.95" stroke="blue" stroke-width="2.0" stroke-linecap="round"/>
<line x1="304.21" y1="364.95" x2="353.73" y2="357.99" stroke="blue" stroke-width="2.0" stroke-linecap="round"/>
<line x1="353.73" y1="357.99" x2="372.46" y2="404.35" stroke="orange" stroke-width="2.0" stroke-linecap="round"/>
<line x1="372.46" y1="404.35" x2="353.73" y2="357.99" stroke="orange" stroke-width="2.0" stroke-linecap="round"/>
<line x1="353.73" y1="357.99" x2="387.83" y2="321.42" stroke="yellow" stroke-width="2.0" stroke-linecap="round"/>
<line x1="387.83" y1="321.42" x2="353.73" y2="357.99" stroke="yellow" stroke-width="2.0" stroke-linecap="round"/>
<line x1="353.73" y1="357.99" x2="370.83" y2="311.01" stroke="blue" stroke-width="2.0" stroke-linecap="round"/>
<line x1="370.83" y1="311.01" x2="353.73" y2="357.99" stroke="blue" stroke-width="2.0" stroke-linecap="round"/>
<line x1="353.73" y1="357.99" x2="304.64" y2="348.45" stroke="green" stroke-width="2.0" stroke-linecap="round"/>
<line x1="304.64" y1="348.45" x2="353.73" y2="357.99" stroke="green" stroke-width="2.0" stroke-linecap="round"/>
<line x1="353.73" y1="357.99" x2="403.35" y2="364.09" stroke="pink" stroke-width="2.0" stroke-linecap="round"/>
<line x1="403.35" y1="364.09" x2="353.73" y2="357.99" stroke="pink" stroke-width="2.0" stroke-linecap="round"/>
<line x1="353.73" y1="357.99" x2="377.97" y2="401.72" stroke="orange" stroke-width="2.0" stroke-linecap="round"/>
<line x1="377.97" y1="401.72" x2="353.73" y2="357.99" stroke="orange" stroke-width="2.0" stroke-linecap="round"/>
<line x1="353.73" y1="357.99" x2="380.22" y2="400.39" stroke="yellow" stroke-width="2.0" stroke-linecap="round"/>
<line x1="380.22" y1="400.39" x2="353.73" y2="357.99" stroke="yellow" stroke-width="2.0" stroke-linecap="round"/>
<line x1="353.73" y1="357.99" x2="403.11" y2="350.17" stroke="red" stroke-width="2.0" stroke-linecap="round"/>
<line x1="403.11" y1="350.17" x2="353.73" y2="357.99" stroke="red" stroke-width="2.0" stroke-linecap="round"/>
<line x1="353.73" y1="357.99" x2="303.79" y2="360.61" stroke="green" stroke-width="2.0" stroke-linecap="round"/>
<line x1="303.79" y1="360.61" x2="353.73" y2="357.99" stroke="green" stroke-width="2.0" stroke-linecap="round"/>
<line x1="353.73" y1="357.99" x2="307.05" y2="340.07" stroke="pink" stroke-width="2.0" stroke-linecap="round"/>
<line x1="307.05" y1="340.07" x2="353.73" y2="357.99" stroke="pink" stroke-width="2.0" stroke-linecap="round"/>
<line x1="353.73" y1="357.99" x2="402.97" y2="349.31" stroke="red" stroke-width="2.0" stroke-linecap="round"/>
<line x1="402.97" y1="349.31" x2="353.73" y2="357.99" stroke="red" stroke-width="2.0" stroke-linecap="round"/>
<line x1="353.73" y1="357.99" x2="394.68" y2="386.67" stroke="orange" stroke-width="2.0" stroke-linecap="round"/>
<line x1="394.68" y1="386.67" x2="353.73" y2="357.99" stroke="orange" stroke-width="2.0" stroke-linecap="round"/>
<line x1="353.73" y1="357.99" x2="333.39" y2="403.67" stroke="red" stroke-width="2.0" stroke-linecap="round"/>
<line x1="333.39" y1="403.67" x2="353.73" y2="357.99" stroke="red" stroke-width="2.0" stroke-linecap="round"/>
<line x1="73.73" y1="235.99" x2="91.64" y2="189.31" stroke="blue" stroke-width="2.0" stroke-linecap="round"/>
<line x1="91.64" y1="189.31" x2="73.73" y2="235.99" stroke="blue" stroke-width="2.0" stroke-linecap="round"/>
<line x1="73.73" y1="235.99" x2="113.13" y2="205.21" stroke="red" stroke-width="2.0" stroke-linecap="round"/>
<line x1="113.13" y1="205.21" x2="73.73" y2="235.99" stroke="red" stroke-width="2.0" stroke-linecap="round"/>
<line x1="73.73" y1="235.99" x2="81.55" y2="285.38" stroke="green" stroke-width="2.0" stroke-linecap="round"/>
<line x1="81.55" y1="285.38" x2="73.73" y2="235.99" stroke="green" stroke-width="2.0" stroke-linecap="round"/>
<line x1="73.73" y1="235.99" x2="120.09" y2="217.26" stroke="blue" stroke-width="2.0" stroke-linecap="round"/>
<line x1="120.09" y1="217.26" x2="73.73" y2="235.99" stroke="blue" stroke-width="2.0" stroke-linecap="round"/>
<line x1="73.73" y1="235.99" x2="123.73" y2="235.99" stroke="pink" stroke-width="2.0" stroke-linecap="round"/>
<line x1="123.73" y1="235.99" x2="73.73" y2="235.99" stroke="pink" stroke-width="2.0" stroke-linecap="round"/>
<line x1="73.73" y1="235.99" x2="24.0" y2="230.77" stroke="yellow" stroke-width="2.0" stroke-linecap="round"/>
<line x1="24.0" y1="230.77" x2="73.73" y2="235.99" stroke="yellow" stroke-width="2.0" stroke-linecap="round"/>
<line x1="73.73" y1="235.99" x2="110.29" y2="201.89" stroke="blue" stroke-width="2.0" stroke-linecap="round"/>
<line x1="110.29" y1="201.89" x2="73.73" y2="235.99" stroke="blue" stroke-width="2.0" stroke-linecap="round"/>
<line x1="73.73" y1="235.99" x2="50.25" y2="280.14" stroke="pink" stroke-width="2.0" stroke-linecap="round"/>
<line x1="50.25" y1="280.14" x2="73.73" y2="235.99" stroke="pink" stroke-width="2.0" stroke-linecap="round"/>
<line x1="73.73" y1="235.99" x2="31.79" y2="263.22" stroke="red" stroke-width="2.0" stroke-linecap="round"/>
<line x1="31.79" y1="263.22" x2="73.73" y2="235.99" stroke="red" stroke-width="2.0" stroke-linecap="round"/>
<line x1="73.73" y1="235.99" x2="122.02" y2="223.05" stroke="white" stroke-width="2.0" stroke-linecap="round"/>
<line x1="122.02" y1="223.05" x2="73.73" y2="235.99" stroke="white" stroke-width="2.0" stroke-linecap="round"/>
<line x1="73.73" y1="235.99" x2="60.79" y2="284.29" stroke="white" stroke-width="2.0" stroke-linecap="round"/>
<line x1="60.79" y1="284.29" x2="73.73" y2="235.99" stroke="white" stroke-width="2.0" stroke-linecap="round"/>
<line x1="73.73" y1="235.99" x2="123.35" y2="229.9" stroke="orange" stroke-width="2.0" stroke-linecap="round"/>
<line x1="123.35" y1="229.9" x2="73.73" y2="235.99" stroke="orange" stroke-width="2.0" stroke-linecap="round"/>
<line x1="73.73" y1="235.99" x2="120.41" y2="253.91" stroke="orange" stroke-width="2.0" stroke-linecap="round"/>
<line x1="120.41" y1="253.91" x2="73.73" y2="235.99" stroke="orange" stroke-width="2.0" stroke-linecap="round"/>
<line x1="73.73" y1="235.99" x2="25.21" y2="248.09" stroke="green" stroke-width="2.0" stroke-linecap="round"/>
<line x1="25.21" y1="248.09" x2="73.73" y2="235.99" stroke="green" stroke-width="2.0" stroke-linecap="round"/>
<line x1="73.73" y1="235.99" x2="123.45" y2="230.77" stroke="orange" stroke-width="2.0" stroke-linecap="round"/>
<line x1="123.45" y1="230.77" x2="73.73" y2="235.99" stroke="orange" stroke-width="2.0" stroke-linecap="round"/>
<line x1="73.73" y1="235.99" x2="114.18" y2="206.6" stroke="orange" stroke-width="2.0" stroke-linecap="round"/>
<line x1="114.18" y1="206.6" x2="73.73" y2="235.99" stroke="orange" stroke-width="2.0" stroke-linecap="round"/>
<line x1="73.73" y1="235.99" x2="108.46" y2="200.03" stroke="red" stroke-width="2.0" stroke-linecap="round"/>
<line x1="108.46" y1="200.03" x2="73.73" y2="235.99" stroke="red" stroke-width="2.0" stroke-linecap="round"/>
<line x1="73.73" y1="235.99" x2="99.48" y2="193.13" stroke="pink" stroke-width="2.0" stroke-linecap="round"/>
<line x1="99.48" y1="193.13" x2="73.73" y2="235.99" stroke="pink" stroke-width="2.0" stroke-linecap="round"/>
<line x1="73.73" y1="235.99" x2="31.79" y2="263.22" stroke="blue" stroke-width="2.0" stroke-linecap="round"/>
<line x1="31.79" y1="263.22" x2="73.73" y2="235.99" stroke="blue" stroke-width="2.0" stroke-linecap="round"/>
<line x1="73.73" y1="235.99" x2="24.64" y2="226.45" stroke="pink" stroke-width="2.0" stroke-linecap="round"/>
<line x1="24.64" y1="226.45" x2="73.73" y2="235.99" stroke="pink" stroke-width="2.0" stroke-linecap="round"/>
<line x1="237.73" y1="97.99" x2="202.37" y2="133.35" stroke="green" stroke-width="2.0" stroke-linecap="round"/>
<line x1="202.37" y1="133.35" x2="237.73" y2="97.99" stroke="green" stroke-width="2.0" stroke-linecap="round"/>
<line x1="237.73" y1="97.99" x2="243.82" y2="147.62" stroke="green" stroke-width="2.0" stroke-linecap="round"/>
<line x1="243.82" y1="147.62" x2="237.73" y2="97.99" stroke="green" stroke-width="2.0" stroke-linecap="round"/>
<line x1="237.73" y1="97.99" x2="233.37" y2="147.8" stroke="red" stroke-width="2.0" stroke-linecap="round"/>
<line x1="233.37" y1="147.8" x2="237.73" y2="97.99" stroke="red" stroke-width="2.0" stroke-linecap="round"/>
<line x1="237.73" y1="97.99" x2="231.63" y2="147.62" stroke="white" stroke-width="2.0" stroke-linecap="round"/>
<line x1="231.63" y1="147.62" x2="237.73" y2="97.99" stroke="white" stroke-width="2.0" stroke-linecap="round"/>
<line x1="237.73" y1="97.99" x2="191.37" y2="79.26" stroke="red" stroke-width="2.0" stroke-linecap="round"/>
<line x1="191.37" y1="79.26" x2="237.73" y2="97.99" stroke="red" stroke-width="2.0" stroke-linecap="round"/>
<line x1="237.73" y1="97.99" x2="273.69" y2="63.26" stroke="orange" stroke-width="2.0" stroke-linecap="round"/>
<line x1="273.69" y1="63.26" x2="237.73" y2="97.99" stroke="orange" stroke-width="2.0" stroke-linecap="round"/>
<line x1="237.73" y1="97.99" x2="286.81" y2="88.45" stroke="green" stroke-width="2.0" stroke-linecap="round"/>
<line x1="286.81" y1="88.45" x2="237.73" y2="97.99" stroke="green" stroke-width="2.0" stroke-linecap="round"/>
<line x1="237.73" y1="97.99" x2="287.66" y2="100.61" stroke="yellow" stroke-width="2.0" stroke-linecap="round"/>
<line x1="287.66" y1="100.61" x2="237.73" y2="97.99" stroke="yellow" stroke-width="2.0" stroke-linecap="round"/>
<line x1="237.73" y1="97.99" x2="223.94" y2="146.06" stroke="red" stroke-width="2.0" stroke-linecap="round"/>
<line x1="223.94" y1="146.06" x2="237.73" y2="97.99" stroke="red" stroke-width="2.0" stroke-linecap="round"/>
<line x1="237.73" y1="97.99" x2="272.46" y2="133.96" stroke="white" stroke-width="2.0" stroke-linecap="round"/>
<line x1="272.46" y1="133.96" x2="237.73" y2="97.99" stroke="white" stroke-width="2.0" stroke-linecap="round"/>
<line x1="237.73" y1="97.99" x2="219.0" y2="144.35" stroke="pink" stroke-width="2.0" stroke-linecap="round"/>
<line x1="219.0" y1="144.35" x2="237.73" y2="97.99" stroke="pink" stroke-width="2.0" stroke-linecap="round"/>
<line x1="237.73" y1="97.99" x2="287.54" y2="93.63" stroke="blue" stroke-width="2.0" stroke-linecap="round"/>
<line x1="287.54" y1="93.63" x2="237.73" y2="97.99" stroke="blue" stroke-width="2.0" stroke-linecap="round"/>
<line x1="237.73" y1="97.99" x2="192.79" y2="76.07" stroke="blue" stroke-width="2.0" stroke-linecap="round"/>
<line x1="192.79" y1="76.07" x2="237.73" y2="97.99" stroke="blue" stroke-width="2.0" stroke-linecap="round"/>
<line x1="237.73" y1="97.99" x2="286.44" y2="109.24" stroke="yellow" stroke-width="2.0" stroke-linecap="round"/>
<line x1="286.44" y1="109.24" x2="237.73" y2="97.99" stroke="yellow" stroke-width="2.0" stroke-linecap="round"/>
<line x1="237.73" y1="97.99" x2="226.48" y2="49.27" stroke="orange" stroke-width="2.0" stroke-linecap="round"/>
<line x1="226.48" y1="49.27" x2="237.73" y2="97.99" stroke="orange" stroke-width="2.0" stroke-linecap="round"/>
<line x1="237.73" y1="97.99" x2="241.21" y2="48.11" stroke="orange" stroke-width="2.0" stroke-linecap="round"/>
<line x1="241.21" y1="48.11" x2="237.73" y2="97.99" stroke="orange" stroke-width="2.0" stroke-linecap="round"/>
<line x1="237.73" y1="97.99" x2="187.92" y2="93.63" stroke="white" stroke-width="2.0" stroke-linecap="round"/>
<line x1="187.92" y1="93.63" x2="237.73" y2="97.99" stroke="white" stroke-width="2.0" stroke-linecap="round"/>
<line x1="237.73" y1="97.99" x2="202.99" y2="133.96" stroke="pink" stroke-width="2.0" stroke-linecap="round"/>
<line x1="202.99" y1="133.96" x2="237.73" y2="97.99" stroke="pink" stroke-width="2.0" stroke-linecap="round"/>
<line x1="237.73" y1="97.99" x2="210.49" y2="56.06" stroke="green" stroke-width="2.0" stroke-linecap="round"/>
<line x1="210.49" y1="56.06" x2="237.73" y2="97.99" stroke="green" stroke-width="2.0" stroke-linecap="round"/>
<line x1="237.73" y1="97.99" x2="193.18" y2="120.69" stroke="blue" stroke-width="2.0" stroke-linecap="round"/>
<line x1="193.18" y1="120.69" x2="237.73" y2="97.99" stroke="blue" stroke-width="2.0" stroke-linecap="round"/>
</svg>