<svg xmlns="http://www.w3.org/2000/svg" viewBox="0 0 207.7 207.4" width="207.7" height="207.4">
<rect x="0" y="0" width="207.7" height="207.4" fill="white"/>
<line x1="103.84" y1="183.37" x2="123.74" y2="180.86" stroke="black" stroke-width="2" stroke-linecap="round"/>
<line x1="123.74" y1="180.86" x2="142.38" y2="173.47" stroke="black" stroke-width="2" stroke-linecap="round"/>
<line x1="142.38" y1="173.47" x2="158.61" y2="161.69" stroke="black" stroke-width="2" stroke-linecap="round"/>
<line x1="158.61" y1="161.69" x2="171.39" y2="146.24" stroke="black" stroke-width="2" stroke-linecap="round"/>
<line x1="171.39" y1="146.24" x2="179.93" y2="128.09" stroke="black" stroke-width="2" stroke-linecap="round"/>
<line x1="179.93" y1="128.09" x2="183.68" y2="108.39" stroke="black" stroke-width="2" stroke-linecap="round"/>
<line x1="183.68" y1="108.39" x2="182.43" y2="88.38" stroke="black" stroke-width="2" stroke-linecap="round"/>
<line x1="182.43" y1="88.38" x2="176.23" y2="69.31" stroke="black" stroke-width="2" stroke-linecap="round"/>
<line x1="176.23" y1="69.31" x2="165.48" y2="52.38" stroke="black" stroke-width="2" stroke-linecap="round"/>
<line x1="165.48" y1="52.38" x2="150.86" y2="38.65" stroke="black" stroke-width="2" stroke-linecap="round"/>
<line x1="150.86" y1="38.65" x2="133.29" y2="28.99" stroke="black" stroke-width="2" stroke-linecap="round"/>
<line x1="133.29" y1="28.99" x2="113.87" y2="24.0" stroke="black" stroke-width="2" stroke-linecap="round"/>
<line x1="113.87" y1="24.0" x2="93.82" y2="24.0" stroke="black" stroke-width="2" stroke-linecap="round"/>
<line x1="93.82" y1="24.0" x2="74.39" y2="28.99" stroke="black" stroke-width="2" stroke-linecap="round"/>
<line x1="74.39" y1="28.99" x2="56.82" y2="38.65" stroke="black" stroke-width="2" stroke-linecap="round"/>
<line x1="56.82" y1="38.65" x2="42.2" y2="52.38" stroke="black" stroke-width="2" stroke-linecap="round"/>
<line x1="42.2" y1="52.38" x2="31.46" y2="69.31" stroke="black" stroke-width="2" stroke-linecap="round"/>
<line x1="31.46" y1="69.31" x2="25.26" y2="88.38" stroke="black" stroke-width="2" stroke-linecap="round"/>
<line x1="25.26" y1="88.38" x2="24.0" y2="108.39" stroke="black" stroke-width="2" stroke-linecap="round"/>
<line x1="24.0" y1="108.39" x2="27.76" y2="128.09" stroke="black" stroke-width="2" stroke-linecap="round"/>
<line x1="27.76" y1="128.09" x2="36.3" y2="146.24" stroke="black" stroke-width="2" stroke-linecap="round"/>
<line x1="36.3" y1="146.24" x2="49.08" y2="161.69" stroke="black" stroke-width="2" stroke-linecap="round"/>
<line x1="49.08" y1="161.69" x2="65.3" y2="173.47" stroke="black" stroke-width="2" stroke-linecap="round"/>
<line x1="65.3" y1="173.47" x2="83.95" y2="180.86" stroke="black" stroke-width="2" stroke-linecap="round"/>
<line x1="83.95" y1="180.86" x2="103.84" y2="183.37" stroke="black" stroke-width="2" stroke-linecap="round"/>
<circle cx="73.84" cy="83.37" r="7.5" fill="black"/>
<circle cx="133.84" cy="83.37" r="7.5" fill="black"/>
<line x1="63.84" y1="123.37" x2="73.13" y2="135.02" stroke="black" stroke-width="2" stroke-linecap="round"/>
<line x1="73.13" y1="135.02" x2="85.45" y2="143.42" stroke="black" stroke-width="2" stroke-linecap="round"/>
<line x1="85.45" y1="143.42" x2="99.69" y2="147.81" stroke="black" stroke-width="2" stroke-linecap="round"/>
<line x1="99.69" y1="147.81" x2="114.6" y2="147.81" stroke="black" stroke-width="2" stroke-linecap="round"/>
<line x1="114.6" y1="147.81" x2="128.84" y2="143.42" stroke="black" stroke-width="2" stroke-linecap="round"/>
<line x1="128.84" y1="143.42" x2="141.15" y2="135.02" stroke="black" stroke-width="2" stroke-linecap="round"/>
<line x1="141.15" y1="135.02" x2="150.44" y2="123.37" stroke="black" stroke-width="2" stroke-linecap="round"/>
</svg>