<svg xmlns="http://www.w3.org/2000/svg" viewBox="0 0 398.0 419.6" width="398.0" height="419.6">
<rect x="0" y="0" width="398.0" height="419.6" fill="black"/>
<polygon points="24,60.33 124.0,60.33 43.1,119.11 74.0,24.0 104.9,119.11 24.0,60.33" fill="white"/>
<line x1="24" y1="60.33" x2="124.0" y2="60.33" stroke="white" stroke-width="2.0" stroke-linecap="round"/>
<line x1="124.0" y1="60.33" x2="43.1" y2="119.11" stroke="white" stroke-width="2.0" stroke-linecap="round"/>
<line x1="43.1" y1="119.11" x2="74.0" y2="24.0" stroke="white" stroke-width="2.0" stroke-linecap="round"/>
<line x1="74.0" y1="24.0" x2="104.9" y2="119.11" stroke="white" stroke-width="2.0" stroke-linecap="round"/>
<line x1="104.9" y1="119.11" x2="24.0" y2="60.33" stroke="white" stroke-width="2.0" stroke-linecap="round"/>
<polygon points="314,60.33 344.0,60.33 319.73,77.96 329.0,49.43 338.27,77.96 314.0,60.33" fill="white"/>
<line x1="314" y1="60.33" x2="344.0" y2="60.33" stroke="white" stroke-width="2.0" stroke-linecap="round"/>
<line x1="344.0" y1="60.33" x2="319.73" y2="77.96" stroke="white" stroke-width="2.0" stroke-linecap="round"/>
<line x1="319.73" y1="77.96" x2="329.0" y2="49.43" stroke="white" stroke-width="2.0" stroke-linecap="round"/>
<line x1="329.0" y1="49.43" x2="338.27" y2="77.96" stroke="white" stroke-width="2.0" stroke-linecap="round"/>
<line x1="338.27" y1="77.96" x2="314.0" y2="60.33" stroke="white" stroke-width="2.0" stroke-linecap="round"/>
<polygon points="314,360.33 374.0,360.33 325.46,395.59 344.0,338.53 362.54,395.59 314.0,360.33" fill="white"/>
<line x1="314" y1="360.33" x2="374.0" y2="360.33" stroke="white" stroke-width="2.0" stroke-linecap="round"/>
<line x1="374.0" y1="360.33" x2="325.46" y2="395.59" stroke="white" stroke-width="2.0" stroke-linecap="round"/>
<line x1="325.46" y1="395.59" x2="344.0" y2="338.53" stroke="white" stroke-width="2.0" stroke-linecap="round"/>
<line x1="344.0" y1="338.53" x2="362.54" y2="395.59" stroke="white" stroke-width="2.0" stroke-linecap="round"/>
<line x1="362.54" y1="395.59" x2="314.0" y2="360.33" stroke="white" stroke-width="2.0" stroke-linecap="round"/>
<polygon points="134,360.33 164.0,360.33 139.73,377.96 149.0,349.43 158.27,377.96 134.0,360.33" fill="white"/>
<line x1="134" y1="360.33" x2="164.0" y2="360.33" stroke="white" stroke-width="2.0" stroke-linecap="round"/>
<line x1="164.0" y1="360.33" x2="139.73" y2="377.96" stroke="white" stroke-width="2.0" stroke-linecap="round"/>
<line x1="139.73" y1="377.96" x2="149.0" y2="349.43" stroke="white" stroke-width="2.0" stroke-linecap="round"/>
<line x1="149.0" y1="349.43" x2="158.27" y2="377.96" stroke="white" stroke-width="2.0" stroke-linecap="round"/>
<line x1="158.27" y1="377.96" x2="134.0" y2="360.33" stroke="white" stroke-width="2.0" stroke-linecap="round"/>
<polygon points="194,270.33 207.68,267.91 219.71,260.97 228.64,250.33 233.39,237.27 233.39,223.38 228.64,210.33 219.71,199.69 207.68,192.74 194.0,190.33 180.32,192.74 168.29,199.69 159.36,210.33 154.61,223.38 154.61,237.27 159.36,250.33 168.29,260.97 180.32,267.91 194.0,270.33" fill="white"/>
<line x1="194" y1="270.33" x2="207.68" y2="267.91" stroke="white" stroke-width="2.0" stroke-linecap="round"/>
<line x1="207.68" y1="267.91" x2="219.71" y2="260.97" stroke="white" stroke-width="2.0" stroke-linecap="round"/>
<line x1="219.71" y1="260.97" x2="228.64" y2="250.33" stroke="white" stroke-width="2.0" stroke-linecap="round"/>
<line x1="228.64" y1="250.33" x2="233.39" y2="237.27" stroke="white" stroke-width="2.0" stroke-linecap="round"/>
<line x1="233.39" y1="237.27" x2="233.39" y2="223.38" stroke="white" stroke-width="2.0" stroke-linecap="round"/>
<line x1="233.39" y1="223.38" x2="228.64" y2="210.33" stroke="white" stroke-width="2.0" stroke-linecap="round"/>
<line x1="228.64" y1="210.33" x2="219.71" y2="199.69" stroke="white" stroke-width="2.0" stroke-linecap="round"/>
<line x1="219.71" y1="199.69" x2="207.68" y2="192.74" stroke="white" stroke-width="2.0" stroke-linecap="round"/>
<line x1="207.68" y1="192.74" x2="194.0" y2="190.33" stroke="white" stroke-width="2.0" stroke-linecap="round"/>
<line x1="194.0" y1="190.33" x2="180.32" y2="192.74" stroke="white" stroke-width="2.0" stroke-linecap="round"/>
<line x1="180.32" y1="192.74" x2="168.29" y2="199.69" stroke="white" stroke-width="2.0" stroke-linecap="round"/>
<line x1="168.29" y1="199.69" x2="159.36" y2="210.33" stroke="white" stroke-width="2.0" stroke-linecap="round"/>
<line x1="159.36" y1="210.33" x2="154.61" y2="223.38" stroke="white" stroke-width="2.0" stroke-linecap="round"/>
<line x1="154.61" y1="223.38" x2="154.61" y2="237.27" stroke="white" stroke-width="2.0" stroke-linecap="round"/>
<line x1="154.61" y1="237.27" x2="159.36" y2="250.33" stroke="white" stroke-width="2.0" stroke-linecap="round"/>
<line x1="159.36" y1="250.33" x2="168.29" y2="260.97" stroke="white" stroke-width="2.0" stroke-linecap="round"/>
<line x1="168.29" y1="260.97" x2="180.32" y2="267.91" stroke="white" stroke-width="2.0" stroke-linecap="round"/>
<line x1="180.32" y1="267.91" x2="194.0" y2="270.33" stroke="white" stroke-width="2.0" stroke-linecap="round"/>
</svg>