<svg xmlns="http://www.w3.org/2000/svg" viewBox="0 0 370.0 205.0" width="370.0" height="205.0">
<rect x="0" y="0" width="370.0" height="205.0" fill="white"/>
<line x1="75.0" y1="126.0" x2="90.76" y2="123.5" stroke="blue" stroke-width="6" stroke-linecap="round"/>
<line x1="90.76" y1="123.5" x2="104.98" y2="116.26" stroke="blue" stroke-width="6" stroke-linecap="round"/>
<line x1="104.98" y1="116.26" x2="116.26" y2="104.98" stroke="blue" stroke-width="6" stroke-linecap="round"/>
<line x1="116.26" y1="104.98" x2="123.5" y2="90.76" stroke="blue" stroke-width="6" stroke-linecap="round"/>
<line x1="123.5" y1="90.76" x2="126.0" y2="75.0" stroke="blue" stroke-width="6" stroke-linecap="round"/>
<line x1="126.0" y1="75.0" x2="123.5" y2="59.24" stroke="blue" stroke-width="6" stroke-linecap="round"/>
<line x1="123.5" y1="59.24" x2="116.26" y2="45.02" stroke="blue" stroke-width="6" stroke-linecap="round"/>
<line x1="116.26" y1="45.02" x2="104.98" y2="33.74" stroke="blue" stroke-width="6" stroke-linecap="round"/>
<line x1="104.98" y1="33.74" x2="90.76" y2="26.5" stroke="blue" stroke-width="6" stroke-linecap="round"/>
<line x1="90.76" y1="26.5" x2="75.0" y2="24.0" stroke="blue" stroke-width="6" stroke-linecap="round"/>
<line x1="75.0" y1="24.0" x2="59.24" y2="26.5" stroke="blue" stroke-width="6" stroke-linecap="round"/>
<line x1="59.24" y1="26.5" x2="45.02" y2="33.74" stroke="blue" stroke-width="6" stroke-linecap="round"/>
<line x1="45.02" y1="33.74" x2="33.74" y2="45.02" stroke="blue" stroke-width="6" stroke-linecap="round"/>
<line x1="33.74" y1="45.02" x2="26.5" y2="59.24" stroke="blue" stroke-width="6" stroke-linecap="round"/>
<line x1="26.5" y1="59.24" x2="24.0" y2="75.0" stroke="blue" stroke-width="6" stroke-linecap="round"/>
<line x1="24.0" y1="75.0" x2="26.5" y2="90.76" stroke="blue" stroke-width="6" stroke-linecap="round"/>
<line x1="26.5" y1="90.76" x2="33.74" y2="104.98" stroke="blue" stroke-width="6" stroke-linecap="round"/>
<line x1="33.74" y1="104.98" x2="45.02" y2="116.26" stroke="blue" stroke-width="6" stroke-linecap="round"/>
<line x1="45.02" y1="116.26" x2="59.24" y2="123.5" stroke="blue" stroke-width="6" stroke-linecap="round"/>
<line x1="59.24" y1="123.5" x2="75.0" y2="126.0" stroke="blue" stroke-width="6" stroke-linecap="round"/>
<line x1="185.0" y1="126.0" x2="200.76" y2="123.5" stroke="black" stroke-width="6" stroke-linecap="round"/>
<line x1="200.76" y1="123.5" x2="214.98" y2="116.26" stroke="black" stroke-width="6" stroke-linecap="round"/>
<line x1="214.98" y1="116.26" x2="226.26" y2="104.98" stroke="black" stroke-width="6" stroke-linecap="round"/>
<line x1="226.26" y1="104.98" x2="233.5" y2="90.76" stroke="black" stroke-width="6" stroke-linecap="round"/>
<line x1="233.5" y1="90.76" x2="236.0" y2="75.0" stroke="black" stroke-width="6" stroke-linecap="round"/>
<line x1="236.0" y1="75.0" x2="233.5" y2="59.24" stroke="black" stroke-width="6" stroke-linecap="round"/>
<line x1="233.5" y1="59.24" x2="226.26" y2="45.02" stroke="black" stroke-width="6" stroke-linecap="round"/>
<line x1="226.26" y1="45.02" x2="214.98" y2="33.74" stroke="black" stroke-width="6" stroke-linecap="round"/>
<line x1="214.98" y1="33.74" x2="200.76" y2="26.5" stroke="black" stroke-width="6" stroke-linecap="round"/>
<line x1="200.76" y1="26.5" x2="185.0" y2="24.0" stroke="black" stroke-width="6" stroke-linecap="round"/>
<line x1="185.0" y1="24.0" x2="169.24" y2="26.5" stroke="black" stroke-width="6" stroke-linecap="round"/>
<line x1="169.24" y1="26.5" x2="155.02" y2="33.74" stroke="black" stroke-width="6" stroke-linecap="round"/>
<line x1="155.02" y1="33.74" x2="143.74" y2="45.02" stroke="black" stroke-width="6" stroke-linecap="round"/>
<line x1="143.74" y1="45.02" x2="136.5" y2="59.24" stroke="black" stroke-width="6" stroke-linecap="round"/>
<line x1="136.5" y1="59.24" x2="134.0" y2="75.0" stroke="black" stroke-width="6" stroke-linecap="round"/>
<line x1="134.0" y1="75.0" x2="136.5" y2="90.76" stroke="black" stroke-width="6" stroke-linecap="round"/>
<line x1="136.5" y1="90.76" x2="143.74" y2="104.98" stroke="black" stroke-width="6" stroke-linecap="round"/>
<line x1="143.74" y1="104.98" x2="155.02" y2="116.26" stroke="black" stroke-width="6" stroke-linecap="round"/>
<line x1="155.02" y1="116.26" x2="169.24" y2="123.5" stroke="black" stroke-width="6" stroke-linecap="round"/>
<line x1="169.24" y1="123.5" x2="185.0" y2="126.0" stroke="black" stroke-width="6" stroke-linecap="round"/>
<line x1="295.0" y1="126.0" x2="310.76" y2="123.5" stroke="red" stroke-width="6" stroke-linecap="round"/>
<line x1="310.76" y1="123.5" x2="324.98" y2="116.26" stroke="red" stroke-width="6" stroke-linecap="round"/>
<line x1="324.98" y1="116.26" x2="336.26" y2="104.98" stroke="red" stroke-width="6" stroke-linecap="round"/>
<line x1="336.26" y1="104.98" x2="343.5" y2="90.76" stroke="red" stroke-width="6" stroke-linecap="round"/>
<line x1="343.5" y1="90.76" x2="346.0" y2="75.0" stroke="red" stroke-width="6" stroke-linecap="round"/>
<line x1="346.0" y1="75.0" x2="343.5" y2="59.24" stroke="red" stroke-width="6" stroke-linecap="round"/>
<line x1="343.5" y1="59.24" x2="336.26" y2="45.02" stroke="red" stroke-width="6" stroke-linecap="round"/>
<line x1="336.26" y1="45.02" x2="324.98" y2="33.74" stroke="red" stroke-width="6" stroke-linecap="round"/>
<line x1="324.98" y1="33.74" x2="310.76" y2="26.5" stroke="red" stroke-width="6" stroke-linecap="round"/>
<line x1="310.76" y1="26.5" x2="295.0" y2="24.0" stroke="red" stroke-width="6" stroke-linecap="round"/>
<line x1="295.0" y1="24.0" x2="279.24" y2="26.5" stroke="red" stroke-width="6" stroke-linecap="round"/>
<line x1="279.24" y1="26.5" x2="265.02" y2="33.74" stroke="red" stroke-width="6" stroke-linecap="round"/>
<line x1="265.02" y1="33.74" x2="253.74" y2="45.02" stroke="red" stroke-width="6" stroke-linecap="round"/>
<line x1="253.74" y1="45.02" x2="246.5" y2="59.24" stroke="red" stroke-width="6" stroke-linecap="round"/>
<line x1="246.5" y1="59.24" x2="244.0" y2="75.0" stroke="red" stroke-width="6" stroke-linecap="round"/>
<line x1="244.0" y1="75.0" x2="246.5" y2="90.76" stroke="red" stroke-width="6" stroke-linecap="round"/>
<line x1="246.5" y1="90.76" x2="253.74" y2="104.98" stroke="red" stroke-width="6" stroke-linecap="round"/>
<line x1="253.74" y1="104.98" x2="265.02" y2="116.26" stroke="red" stroke-width="6" stroke-linecap="round"/>
<line x1="265.02" y1="116.26" x2="279.24" y2="123.5" stroke="red" stroke-width="6" stroke-linecap="round"/>
<line x1="279.24" y1="123.5" x2="295.0" y2="126.0" stroke="red" stroke-width="6" stroke-linecap="round"/>
<line x1="135.0" y1="181.0" x2="150.76" y2="178.5" stroke="yellow" stroke-width="6" stroke-linecap="round"/>
<line x1="150.76" y1="178.5" x2="164.98" y2="171.26" stroke="yellow" stroke-width="6" stroke-linecap="round"/>
<line x1="164.98" y1="171.26" x2="176.26" y2="159.98" stroke="yellow" stroke-width="6" stroke-linecap="round"/>
<line x1="176.26" y1="159.98" x2="183.5" y2="145.76" stroke="yellow" stroke-width="6" stroke-linecap="round"/>
<line x1="183.5" y1="145.76" x2="186.0" y2="130.0" stroke="yellow" stroke-width="6" stroke-linecap="round"/>
<line x1="186.0" y1="130.0" x2="183.5" y2="114.24" stroke="yellow" stroke-width="6" stroke-linecap="round"/>
<line x1="183.5" y1="114.24" x2="176.26" y2="100.02" stroke="yellow" stroke-width="6" stroke-linecap="round"/>
<line x1="176.26" y1="100.02" x2="164.98" y2="88.74" stroke="yellow" stroke-width="6" stroke-linecap="round"/>
<line x1="164.98" y1="88.74" x2="150.76" y2="81.5" stroke="yellow" stroke-width="6" stroke-linecap="round"/>
<line x1="150.76" y1="81.5" x2="135.0" y2="79.0" stroke="yellow" stroke-width="6" stroke-linecap="round"/>
<line x1="135.0" y1="79.0" x2="119.24" y2="81.5" stroke="yellow" stroke-width="6" stroke-linecap="round"/>
<line x1="119.24" y1="81.5" x2="105.02" y2="88.74" stroke="yellow" stroke-width="6" stroke-linecap="round"/>
<line x1="105.02" y1="88.74" x2="93.74" y2="100.02" stroke="yellow" stroke-width="6" stroke-linecap="round"/>
<line x1="93.74" y1="100.02" x2="86.5" y2="114.24" stroke="yellow" stroke-width="6" stroke-linecap="round"/>
<line x1="86.5" y1="114.24" x2="84.0" y2="130.0" stroke="yellow" stroke-width="6" stroke-linecap="round"/>
<line x1="84.0" y1="130.0" x2="86.5" y2="145.76" stroke="yellow" stroke-width="6" stroke-linecap="round"/>
<line x1="86.5" y1="145.76" x2="93.74" y2="159.98" stroke="yellow" stroke-width="6" stroke-linecap="round"/>
<line x1="93.74" y1="159.98" x2="105.02" y2="171.26" stroke="yellow" stroke-width="6" stroke-linecap="round"/>
<line x1="105.02" y1="171.26" x2="119.24" y2="178.5" stroke="yellow" stroke-width="6" stroke-linecap="round"/>
<line x1="119.24" y1="178.5" x2="135.0" y2="181.0" stroke="yellow" stroke-width="6" stroke-linecap="round"/>
<line x1="245.0" y1="181.0" x2="260.76" y2="178.5" stroke="green" stroke-width="6" stroke-linecap="round"/>
<line x1="260.76" y1="178.5" x2="274.98" y2="171.26" stroke="green" stroke-width="6" stroke-linecap="round"/>
<line x1="274.98" y1="171.26" x2="286.26" y2="159.98" stroke="green" stroke-width="6" stroke-linecap="round"/>
<line x1="286.26" y1="159.98" x2="293.5" y2="145.76" stroke="green" stroke-width="6" stroke-linecap="round"/>
<line x1="293.5" y1="145.76" x2="296.0" y2="130.0" stroke="green" stroke-width="6" stroke-linecap="round"/>
<line x1="296.0" y1="130.0" x2="293.5" y2="114.24" stroke="green" stroke-width="6" stroke-linecap="round"/>
<line x1="293.5" y1="114.24" x2="286.26" y2="100.02" stroke="green" stroke-width="6" stroke-linecap="round"/>
<line x1="286.26" y1="100.02" x2="274.98" y2="88.74" stroke="green" stroke-width="6" stroke-linecap="round"/>
<line x1="274.98" y1="88.74" x2="260.76" y2="81.5" stroke="green" stroke-width="6" stroke-linecap="round"/>
<line x1="260.76" y1="81.5" x2="245.0" y2="79.0" stroke="green" stroke-width="6" stroke-linecap="round"/>
<line x1="245.0" y1="79.0" x2="229.24" y2="81.5" stroke="green" stroke-width="6" stroke-linecap="round"/>
<line x1="229.24" y1="81.5" x2="215.02" y2="88.74" stroke="green" stroke-width="6" stroke-linecap="round"/>
<line x1="215.02" y1="88.74" x2="203.74" y2="100.02" stroke="green" stroke-width="6" stroke-linecap="round"/>
<line x1="203.74" y1="100.02" x2="196.5" y2="114.24" stroke="green" stroke-width="6" stroke-linecap="round"/>
<line x1="196.5" y1="114.24" x2="194.0" y2="130.0" stroke="green" stroke-width="6" stroke-linecap="round"/>
<line x1="194.0" y1="130.0" x2="196.5" y2="145.76" stroke="green" stroke-width="6" stroke-linecap="round"/>
<line x1="196.5" y1="145.76" x2="203.74" y2="159.98" stroke="green" stroke-width="6" stroke-linecap="round"/>
<line x1="203.74" y1="159.98" x2="215.02" y2="171.26" stroke="green" stroke-width="6" stroke-linecap="round"/>
<line x1="215.02" y1="171.26" x2="229.24" y2="178.5" stroke="green" stroke-width="6" stroke-linecap="round"/>
<line x1="229.24" y1="178.5" x2="245.0" y2="181.0" stroke="green" stroke-width="6" stroke-linecap="round"/>
</svg>