<svg xmlns="http://www.w3.org/2000/svg" viewBox="0 0 328.0 208.0" width="328.0" height="208.0">
<rect x="0" y="0" width="328.0" height="208.0" fill="white"/>
<text x="24" y="24" font-family="Georgia,serif" font-size="12" fill="0" text-anchor="middle">0</text>
<line x1="24.0" y1="34.0" x2="24.0" y2="44.0" stroke="black" stroke-width="2.0" stroke-linecap="round"/>
<line x1="24.0" y1="54.0" x2="24.0" y2="64.0" stroke="black" stroke-width="2.0" stroke-linecap="round"/>
<line x1="24.0" y1="74.0" x2="24.0" y2="84.0" stroke="black" stroke-width="2.0" stroke-linecap="round"/>
<line x1="24.0" y1="94.0" x2="24.0" y2="104.0" stroke="black" stroke-width="2.0" stroke-linecap="round"/>
<line x1="24.0" y1="114.0" x2="24.0" y2="124.0" stroke="black" stroke-width="2.0" stroke-linecap="round"/>
<line x1="24.0" y1="134.0" x2="24.0" y2="144.0" stroke="black" stroke-width="2.0" stroke-linecap="round"/>
<line x1="24.0" y1="154.0" x2="24.0" y2="164.0" stroke="black" stroke-width="2.0" stroke-linecap="round"/>
<line x1="24.0" y1="174.0" x2="24.0" y2="184.0" stroke="black" stroke-width="2.0" stroke-linecap="round"/>
<text x="44.0" y="24.0" font-family="Georgia,serif" font-size="12" fill="1" text-anchor="middle">1</text>
<line x1="44.0" y1="34.0" x2="44.0" y2="44.0" stroke="black" stroke-width="2.0" stroke-linecap="round"/>
<line x1="44.0" y1="54.0" x2="44.0" y2="64.0" stroke="black" stroke-width="2.0" stroke-linecap="round"/>
<line x1="44.0" y1="74.0" x2="44.0" y2="84.0" stroke="black" stroke-width="2.0" stroke-linecap="round"/>
<line x1="44.0" y1="94.0" x2="44.0" y2="104.0" stroke="black" stroke-width="2.0" stroke-linecap="round"/>
<line x1="44.0" y1="114.0" x2="44.0" y2="124.0" stroke="black" stroke-width="2.0" stroke-linecap="round"/>
<line x1="44.0" y1="134.0" x2="44.0" y2="144.0" stroke="black" stroke-width="2.0" stroke-linecap="round"/>
<line x1="44.0" y1="154.0" x2="44.0" y2="164.0" stroke="black" stroke-width="2.0" stroke-linecap="round"/>
<line x1="44.0" y1="174.0" x2="44.0" y2="184.0" stroke="black" stroke-width="2.0" stroke-linecap="round"/>
<text x="64.0" y="24.0" font-family="Georgia,serif" font-size="12" fill="2" text-anchor="middle">2</text>
<line x1="64.0" y1="34.0" x2="64.0" y2="44.0" stroke="black" stroke-width="2.0" stroke-linecap="round"/>
<line x1="64.0" y1="54.0" x2="64.0" y2="64.0" stroke="black" stroke-width="2.0" stroke-linecap="round"/>
<line x1="64.0" y1="74.0" x2="64.0" y2="84.0" stroke="black" stroke-width="2.0" stroke-linecap="round"/>
<line x1="64.0" y1="94.0" x2="64.0" y2="104.0" stroke="black" stroke-width="2.0" stroke-linecap="round"/>
<line x1="64.0" y1="114.0" x2="64.0" y2="124.0" stroke="black" stroke-width="2.0" stroke-linecap="round"/>
<line x1="64.0" y1="134.0" x2="64.0" y2="144.0" stroke="black" stroke-width="2.0" stroke-linecap="round"/>
<line x1="64.0" y1="154.0" x2="64.0" y2="164.0" stroke="black" stroke-width="2.0" stroke-linecap="round"/>
<line x1="64.0" y1="174.0" x2="64.0" y2="184.0" stroke="black" stroke-width="2.0" stroke-linecap="round"/>
<text x="84.0" y="24.0" font-family="Georgia,serif" font-size="12" fill="3" text-anchor="middle">3</text>
<line x1="84.0" y1="34.0" x2="84.0" y2="44.0" stroke="black" stroke-width="2.0" stroke-linecap="round"/>
<line x1="84.0" y1="54.0" x2="84.0" y2="64.0" stroke="black" stroke-width="2.0" stroke-linecap="round"/>
<line x1="84.0" y1="74.0" x2="84.0" y2="84.0" stroke="black" stroke-width="2.0" stroke-linecap="round"/>
<line x1="84.0" y1="94.0" x2="84.0" y2="104.0" stroke="black" stroke-width="2.0" stroke-linecap="round"/>
<line x1="84.0" y1="114.0" x2="84.0" y2="124.0" stroke="black" stroke-width="2.0" stroke-linecap="round"/>
<line x1="84.0" y1="134.0" x2="84.0" y2="144.0" stroke="black" stroke-width="2.0" stroke-linecap="round"/>
<line x1="84.0" y1="154.0" x2="84.0" y2="164.0" stroke="black" stroke-width="2.0" stroke-linecap="round"/>
<line x1="84.0" y1="174.0" x2="84.0" y2="184.0" stroke="black" stroke-width="2.0" stroke-linecap="round"/>
<text x="104.0" y="24.0" font-family="Georgia,serif" font-size="12" fill="4" text-anchor="middle">4</text>
<line x1="104.0" y1="34.0" x2="104.0" y2="44.0" stroke="black" stroke-width="2.0" stroke-linecap="round"/>
<line x1="104.0" y1="54.0" x2="104.0" y2="64.0" stroke="black" stroke-width="2.0" stroke-linecap="round"/>
<line x1="104.0" y1="74.0" x2="104.0" y2="84.0" stroke="black" stroke-width="2.0" stroke-linecap="round"/>
<line x1="104.0" y1="94.0" x2="104.0" y2="104.0" stroke="black" stroke-width="2.0" stroke-linecap="round"/>
<line x1="104.0" y1="114.0" x2="104.0" y2="124.0" stroke="black" stroke-width="2.0" stroke-linecap="round"/>
<line x1="104.0" y1="134.0" x2="104.0" y2="144.0" stroke="black" stroke-width="2.0" stroke-linecap="round"/>
<line x1="104.0" y1="154.0" x2="104.0" y2="164.0" stroke="black" stroke-width="2.0" stroke-linecap="round"/>
<line x1="104.0" y1="174.0" x2="104.0" y2="184.0" stroke="black" stroke-width="2.0" stroke-linecap="round"/>
<text x="124.0" y="24.0" font-family="Georgia,serif" font-size="12" fill="5" text-anchor="middle">5</text>
<line x1="124.0" y1="34.0" x2="124.0" y2="44.0" stroke="black" stroke-width="2.0" stroke-linecap="round"/>
<line x1="124.0" y1="54.0" x2="124.0" y2="64.0" stroke="black" stroke-width="2.0" stroke-linecap="round"/>
<line x1="124.0" y1="74.0" x2="124.0" y2="84.0" stroke="black" stroke-width="2.0" stroke-linecap="round"/>
<line x1="124.0" y1="94.0" x2="124.0" y2="104.0" stroke="black" stroke-width="2.0" stroke-linecap="round"/>
<line x1="124.0" y1="114.0" x2="124.0" y2="124.0" stroke="black" stroke-width="2.0" stroke-linecap="round"/>
<line x1="124.0" y1="134.0" x2="124.0" y2="144.0" stroke="black" stroke-width="2.0" stroke-linecap="round"/>
<line x1="124.0" y1="154.0" x2="124.0" y2="164.0" stroke="black" stroke-width="2.0" stroke-linecap="round"/>
<line x1="124.0" y1="174.0" x2="124.0" y2="184.0" stroke="black" stroke-width="2.0" stroke-linecap="round"/>
<text x="144.0" y="24.0" font-family="Georgia,serif" font-size="12" fill="6" text-anchor="middle">6</text>
<line x1="144.0" y1="34.0" x2="144.0" y2="44.0" stroke="black" stroke-width="2.0" stroke-linecap="round"/>
<line x1="144.0" y1="54.0" x2="144.0" y2="64.0" stroke="black" stroke-width="2.0" stroke-linecap="round"/>
<line x1="144.0" y1="74.0" x2="144.0" y2="84.0" stroke="black" stroke-width="2.0" stroke-linecap="round"/>
<line x1="144.0" y1="94.0" x2="144.0" y2="104.0" stroke="black" stroke-width="2.0" stroke-linecap="round"/>
<line x1="144.0" y1="114.0" x2="144.0" y2="124.0" stroke="black" stroke-width="2.0" stroke-linecap="round"/>
<line x1="144.0" y1="134.0" x2="144.0" y2="144.0" stroke="black" stroke-width="2.0" stroke-linecap="round"/>
<line x1="144.0" y1="154.0" x2="144.0" y2="164.0" stroke="black" stroke-width="2.0" stroke-linecap="round"/>
<line x1="144.0" y1="174.0" x2="144.0" y2="184.0" stroke="black" stroke-width="2.0" stroke-linecap="round"/>
<text x="164.0" y="24.0" font-family="Georgia,serif" font-size="12" fill="7" text-anchor="middle">7</text>
<line x1="164.0" y1="34.0" x2="164.0" y2="44.0" stroke="black" stroke-width="2.0" stroke-linecap="round"/>
<line x1="164.0" y1="54.0" x2="164.0" y2="64.0" stroke="black" stroke-width="2.0" stroke-linecap="round"/>
<line x1="164.0" y1="74.0" x2="164.0" y2="84.0" stroke="black" stroke-width="2.0" stroke-linecap="round"/>
<line x1="164.0" y1="94.0" x2="164.0" y2="104.0" stroke="black" stroke-width="2.0" stroke-linecap="round"/>
<line x1="164.0" y1="114.0" x2="164.0" y2="124.0" stroke="black" stroke-width="2.0" stroke-linecap="round"/>
<line x1="164.0" y1="134.0" x2="164.0" y2="144.0" stroke="black" stroke-width="2.0" stroke-linecap="round"/>
<line x1="164.0" y1="154.0" x2="164.0" y2="164.0" stroke="black" stroke-width="2.0" stroke-linecap="round"/>
<line x1="164.0" y1="174.0" x2="164.0" y2="184.0" stroke="black" stroke-width="2.0" stroke-linecap="round"/>
<text x="184.0" y="24.0" font-family="Georgia,serif" font-size="12" fill="8" text-anchor="middle">8</text>
<line x1="184.0" y1="34.0" x2="184.0" y2="44.0" stroke="black" stroke-width="2.0" stroke-linecap="round"/>
<line x1="184.0" y1="54.0" x2="184.0" y2="64.0" stroke="black" stroke-width="2.0" stroke-linecap="round"/>
<line x1="184.0" y1="74.0" x2="184.0" y2="84.0" stroke="black" stroke-width="2.0" stroke-linecap="round"/>
<line x1="184.0" y1="94.0" x2="184.0" y2="104.0" stroke="black" stroke-width="2.0" stroke-linecap="round"/>
<line x1="184.0" y1="114.0" x2="184.0" y2="124.0" stroke="black" stroke-width="2.0" stroke-linecap="round"/>
<line x1="184.0" y1="134.0" x2="184.0" y2="144.0" stroke="black" stroke-width="2.0" stroke-linecap="round"/>
<line x1="184.0" y1="154.0" x2="184.0" y2="164.0" stroke="black" stroke-width="2.0" stroke-linecap="round"/>
<line x1="184.0" y1="174.0" x2="184.0" y2="184.0" stroke="black" stroke-width="2.0" stroke-linecap="round"/>
<text x="204.0" y="24.0" font-family="Georgia,serif" font-size="12" fill="9" text-anchor="middle">9</text>
<line x1="204.0" y1="34.0" x2="204.0" y2="44.0" stroke="black" stroke-width="2.0" stroke-linecap="round"/>
<line x1="204.0" y1="54.0" x2="204.0" y2="64.0" stroke="black" stroke-width="2.0" stroke-linecap="round"/>
<line x1="204.0" y1="74.0" x2="204.0" y2="84.0" stroke="black" stroke-width="2.0" stroke-linecap="round"/>
<line x1="204.0" y1="94.0" x2="204.0" y2="104.0" stroke="black" stroke-width="2.0" stroke-linecap="round"/>
<line x1="204.0" y1="114.0" x2="204.0" y2="124.0" stroke="black" stroke-width="2.0" stroke-linecap="round"/>
<line x1="204.0" y1="134.0" x2="204.0" y2="144.0" stroke="black" stroke-width="2.0" stroke-linecap="round"/>
<line x1="204.0" y1="154.0" x2="204.0" y2="164.0" stroke="black" stroke-width="2.0" stroke-linecap="round"/>
<line x1="204.0" y1="174.0" x2="204.0" y2="184.0" stroke="black" stroke-width="2.0" stroke-linecap="round"/>
<text x="224.0" y="24.0" font-family="Georgia,serif" font-size="12" fill="10" text-anchor="middle">10</text>
<line x1="224.0" y1="34.0" x2="224.0" y2="44.0" stroke="black" stroke-width="2.0" stroke-linecap="round"/>
<line x1="224.0" y1="54.0" x2="224.0" y2="64.0" stroke="black" stroke-width="2.0" stroke-linecap="round"/>
<line x1="224.0" y1="74.0" x2="224.0" y2="84.0" stroke="black" stroke-width="2.0" stroke-linecap="round"/>
<line x1="224.0" y1="94.0" x2="224.0" y2="104.0" stroke="black" stroke-width="2.0" stroke-linecap="round"/>
<line x1="224.0" y1="114.0" x2="224.0" y2="124.0" stroke="black" stroke-width="2.0" stroke-linecap="round"/>
<line x1="224.0" y1="134.0" x2="224.0" y2="144.0" stroke="black" stroke-width="2.0" stroke-linecap="round"/>
<line x1="224.0" y1="154.0" x2="224.0" y2="164.0" stroke="black" stroke-width="2.0" stroke-linecap="round"/>
<line x1="224.0" y1="174.0" x2="224.0" y2="184.0" stroke="black" stroke-width="2.0" stroke-linecap="round"/>
<text x="244.0" y="24.0" font-family="Georgia,serif" font-size="12" fill="11" text-anchor="middle">11</text>
<line x1="244.0" y1="34.0" x2="244.0" y2="44.0" stroke="black" stroke-width="2.0" stroke-linecap="round"/>
<line x1="244.0" y1="54.0" x2="244.0" y2="64.0" stroke="black" stroke-width="2.0" stroke-linecap="round"/>
<line x1="244.0" y1="74.0" x2="244.0" y2="84.0" stroke="black" stroke-width="2.0" stroke-linecap="round"/>
<line x1="244.0" y1="94.0" x2="244.0" y2="104.0" stroke="black" stroke-width="2.0" stroke-linecap="round"/>
<line x1="244.0" y1="114.0" x2="244.0" y2="124.0" stroke="black" stroke-width="2.0" stroke-linecap="round"/>
<line x1="244.0" y1="134.0" x2="244.0" y2="144.0" stroke="black" stroke-width="2.0" stroke-linecap="round"/>
<line x1="244.0" y1="154.0" x2="244.0" y2="164.0" stroke="black" stroke-width="2.0" stroke-linecap="round"/>
<line x1="244.0" y1="174.0" x2="244.0" y2="184.0" stroke="black" stroke-width="2.0" stroke-linecap="round"/>
<text x="264.0" y="24.0" font-family="Georgia,serif" font-size="12" fill="12" text-anchor="middle">12</text>
<line x1="264.0" y1="34.0" x2="264.0" y2="44.0" stroke="black" stroke-width="2.0" stroke-linecap="round"/>
<line x1="264.0" y1="54.0" x2="264.0" y2="64.0" stroke="black" stroke-width="2.0" stroke-linecap="round"/>
<line x1="264.0" y1="74.0" x2="264.0" y2="84.0" stroke="black" stroke-width="2.0" stroke-linecap="round"/>
<line x1="264.0" y1="94.0" x2="264.0" y2="104.0" stroke="black" stroke-width="2.0" stroke-linecap="round"/>
<line x1="264.0" y1="114.0" x2="264.0" y2="124.0" stroke="black" stroke-width="2.0" stroke-linecap="round"/>
<line x1="264.0" y1="134.0" x2="264.0" y2="144.0" stroke="black" stroke-width="2.0" stroke-linecap="round"/>
<line x1="264.0" y1="154.0" x2="264.0" y2="164.0" stroke="black" stroke-width="2.0" stroke-linecap="round"/>
<line x1="264.0" y1="174.0" x2="264.0" y2="184.0" stroke="black" stroke-width="2.0" stroke-linecap="round"/>
<text x="284.0" y="24.0" font-family="Georgia,serif" font-size="12" fill="13" text-anchor="middle">13</text>
<line x1="284.0" y1="34.0" x2="284.0" y2="44.0" stroke="black" stroke-width="2.0" stroke-linecap="round"/>
<line x1="284.0" y1="54.0" x2="284.0" y2="64.0" stroke="black" stroke-width="2.0" stroke-linecap="round"/>
<line x1="284.0" y1="74.0" x2="284.0" y2="84.0" stroke="black" stroke-width="2.0" stroke-linecap="round"/>
<line x1="284.0" y1="94.0" x2="284.0" y2="104.0" stroke="black" stroke-width="2.0" stroke-linecap="round"/>
<line x1="284.0" y1="114.0" x2="284.0" y2="124.0" stroke="black" stroke-width="2.0" stroke-linecap="round"/>
<line x1="284.0" y1="134.0" x2="284.0" y2="144.0" stroke="black" stroke-width="2.0" stroke-linecap="round"/>
<line x1="284.0" y1="154.0" x2="284.0" y2="164.0" stroke="black" stroke-width="2.0" stroke-linecap="round"/>
<line x1="284.0" y1="174.0" x2="284.0" y2="184.0" stroke="black" stroke-width="2.0" stroke-linecap="round"/>
<text x="304.0" y="24.0" font-family="Georgia,serif" font-size="12" fill="14" text-anchor="middle">14</text>
<line x1="304.0" y1="34.0" x2="304.0" y2="44.0" stroke="black" stroke-width="2.0" stroke-linecap="round"/>
<line x1="304.0" y1="54.0" x2="304.0" y2="64.0" stroke="black" stroke-width="2.0" stroke-linecap="round"/>
<line x1="304.0" y1="74.0" x2="304.0" y2="84.0" stroke="black" stroke-width="2.0" stroke-linecap="round"/>
<line x1="304.0" y1="94.0" x2="304.0" y2="104.0" stroke="black" stroke-width="2.0" stroke-linecap="round"/>
<line x1="304.0" y1="114.0" x2="304.0" y2="124.0" stroke="black" stroke-width="2.0" stroke-linecap="round"/>
<line x1="304.0" y1="134.0" x2="304.0" y2="144.0" stroke="black" stroke-width="2.0" stroke-linecap="round"/>
<line x1="304.0" y1="154.0" x2="304.0" y2="164.0" stroke="black" stroke-width="2.0" stroke-linecap="round"/>
<line x1="304.0" y1="174.0" x2="304.0" y2="184.0" stroke="black" stroke-width="2.0" stroke-linecap="round"/>
<polygon points="124,64 140.0,64.0 132.0,50.14 124.0,64.0" fill="magenta"/>
<line x1="124" y1="64" x2="140.0" y2="64.0" stroke="magenta" stroke-width="2.0" stroke-linecap="round"/>
<line x1="140.0" y1="64.0" x2="132.0" y2="50.14" stroke="magenta" stroke-width="2.0" stroke-linecap="round"/>
<line x1="132.0" y1="50.14" x2="124.0" y2="64.0" stroke="magenta" stroke-width="2.0" stroke-linecap="round"/>
<polygon points="215,94 231.0,94.0 223.0,80.14 215.0,94.0" fill="red"/>
<line x1="215" y1="94" x2="231.0" y2="94.0" stroke="red" stroke-width="2.0" stroke-linecap="round"/>
<line x1="231.0" y1="94.0" x2="223.0" y2="80.14" stroke="red" stroke-width="2.0" stroke-linecap="round"/>
<line x1="223.0" y1="80.14" x2="215.0" y2="94.0" stroke="red" stroke-width="2.0" stroke-linecap="round"/>
<polygon points="203,124 219.0,124.0 211.0,110.14 203.0,124.0" fill="green"/>
<line x1="203" y1="124" x2="219.0" y2="124.0" stroke="green" stroke-width="2.0" stroke-linecap="round"/>
<line x1="219.0" y1="124.0" x2="211.0" y2="110.14" stroke="green" stroke-width="2.0" stroke-linecap="round"/>
<line x1="211.0" y1="110.14" x2="203.0" y2="124.0" stroke="green" stroke-width="2.0" stroke-linecap="round"/>
<polygon points="97,154 113.0,154.0 105.0,140.14 97.0,154.0" fill="blue"/>
<line x1="97" y1="154" x2="113.0" y2="154.0" stroke="blue" stroke-width="2.0" stroke-linecap="round"/>
<line x1="113.0" y1="154.0" x2="105.0" y2="140.14" stroke="blue" stroke-width="2.0" stroke-linecap="round"/>
<line x1="105.0" y1="140.14" x2="97.0" y2="154.0" stroke="blue" stroke-width="2.0" stroke-linecap="round"/>
</svg>