<svg xmlns="http://www.w3.org/2000/svg" viewBox="0 0 240.0 445.7" width="240.0" height="445.7">
<rect x="0" y="0" width="240.0" height="445.7" fill="black"/>
<line x1="105.7" y1="417.56" x2="78.06" y2="384.62" stroke="pink" stroke-width="2.0" stroke-linecap="round"/>
<line x1="78.06" y1="384.62" x2="127.69" y2="390.71" stroke="blue" stroke-width="2.0" stroke-linecap="round"/>
<line x1="127.69" y1="390.71" x2="171.35" y2="412.95" stroke="white" stroke-width="2.0" stroke-linecap="round"/>
<line x1="171.35" y1="412.95" x2="215.98" y2="401.83" stroke="pink" stroke-width="2.0" stroke-linecap="round"/>
<line x1="215.98" y1="401.83" x2="191.91" y2="369.88" stroke="green" stroke-width="2.0" stroke-linecap="round"/>
<line x1="191.91" y1="369.88" x2="195.9" y2="347.23" stroke="red" stroke-width="2.0" stroke-linecap="round"/>
<line x1="195.9" y1="347.23" x2="172.4" y2="387.93" stroke="blue" stroke-width="2.0" stroke-linecap="round"/>
<line x1="172.4" y1="387.93" x2="136.5" y2="396.88" stroke="yellow" stroke-width="2.0" stroke-linecap="round"/>
<line x1="136.5" y1="396.88" x2="147.05" y2="421.74" stroke="red" stroke-width="2.0" stroke-linecap="round"/>
<line x1="147.05" y1="421.74" x2="135.77" y2="390.73" stroke="red" stroke-width="2.0" stroke-linecap="round"/>
<line x1="135.77" y1="390.73" x2="133.2" y2="341.8" stroke="blue" stroke-width="2.0" stroke-linecap="round"/>
<line x1="133.2" y1="341.8" x2="140.08" y2="298.34" stroke="green" stroke-width="2.0" stroke-linecap="round"/>
<line x1="140.08" y1="298.34" x2="152.78" y2="261.46" stroke="red" stroke-width="2.0" stroke-linecap="round"/>
<line x1="152.78" y1="261.46" x2="136.41" y2="279.01" stroke="pink" stroke-width="2.0" stroke-linecap="round"/>
<line x1="136.41" y1="279.01" x2="183.41" y2="279.01" stroke="yellow" stroke-width="2.0" stroke-linecap="round"/>
<line x1="183.41" y1="279.01" x2="170.55" y2="236.94" stroke="red" stroke-width="2.0" stroke-linecap="round"/>
<line x1="170.55" y1="236.94" x2="175.46" y2="190.19" stroke="yellow" stroke-width="2.0" stroke-linecap="round"/>
<line x1="175.46" y1="190.19" x2="150.02" y2="174.3" stroke="yellow" stroke-width="2.0" stroke-linecap="round"/>
<line x1="150.02" y1="174.3" x2="155.04" y2="222.03" stroke="yellow" stroke-width="2.0" stroke-linecap="round"/>
<line x1="155.04" y1="222.03" x2="174.95" y2="238.75" stroke="white" stroke-width="2.0" stroke-linecap="round"/>
<line x1="174.95" y1="238.75" x2="200.76" y2="241.91" stroke="yellow" stroke-width="2.0" stroke-linecap="round"/>
<line x1="200.76" y1="241.91" x2="183.1" y2="232.53" stroke="green" stroke-width="2.0" stroke-linecap="round"/>
<line x1="183.1" y1="232.53" x2="161.9" y2="245.77" stroke="blue" stroke-width="2.0" stroke-linecap="round"/>
<line x1="161.9" y1="245.77" x2="146.34" y2="230.22" stroke="yellow" stroke-width="2.0" stroke-linecap="round"/>
<line x1="146.34" y1="230.22" x2="105.0" y2="210.05" stroke="blue" stroke-width="2.0" stroke-linecap="round"/>
<line x1="105.0" y1="210.05" x2="115.0" y2="227.37" stroke="pink" stroke-width="2.0" stroke-linecap="round"/>
<line x1="115.0" y1="227.37" x2="155.92" y2="236.82" stroke="pink" stroke-width="2.0" stroke-linecap="round"/>
<line x1="155.92" y1="236.82" x2="180.24" y2="221.03" stroke="blue" stroke-width="2.0" stroke-linecap="round"/>
<line x1="180.24" y1="221.03" x2="148.27" y2="206.79" stroke="blue" stroke-width="2.0" stroke-linecap="round"/>
<line x1="148.27" y1="206.79" x2="124.63" y2="198.65" stroke="white" stroke-width="2.0" stroke-linecap="round"/>
<line x1="124.63" y1="198.65" x2="104.27" y2="235.38" stroke="green" stroke-width="2.0" stroke-linecap="round"/>
<line x1="104.27" y1="235.38" x2="128.76" y2="221.81" stroke="yellow" stroke-width="2.0" stroke-linecap="round"/>
<line x1="128.76" y1="221.81" x2="81.82" y2="224.27" stroke="red" stroke-width="2.0" stroke-linecap="round"/>
<line x1="81.82" y1="224.27" x2="118.37" y2="218.48" stroke="green" stroke-width="2.0" stroke-linecap="round"/>
<line x1="118.37" y1="218.48" x2="86.61" y2="222.38" stroke="green" stroke-width="2.0" stroke-linecap="round"/>
<line x1="86.61" y1="222.38" x2="120.52" y2="220.01" stroke="pink" stroke-width="2.0" stroke-linecap="round"/>
<line x1="120.52" y1="220.01" x2="119.16" y2="181.03" stroke="red" stroke-width="2.0" stroke-linecap="round"/>
<line x1="119.16" y1="181.03" x2="141.16" y2="142.93" stroke="yellow" stroke-width="2.0" stroke-linecap="round"/>
<line x1="141.16" y1="142.93" x2="123.83" y2="168.63" stroke="yellow" stroke-width="2.0" stroke-linecap="round"/>
<line x1="123.83" y1="168.63" x2="75.84" y2="169.47" stroke="pink" stroke-width="2.0" stroke-linecap="round"/>
<line x1="75.84" y1="169.47" x2="48.75" y2="134.79" stroke="pink" stroke-width="2.0" stroke-linecap="round"/>
<line x1="48.75" y1="134.79" x2="70.54" y2="103.67" stroke="green" stroke-width="2.0" stroke-linecap="round"/>
<line x1="70.54" y1="103.67" x2="24.0" y2="110.21" stroke="white" stroke-width="2.0" stroke-linecap="round"/>
<line x1="24.0" y1="110.21" x2="55.38" y2="100.01" stroke="blue" stroke-width="2.0" stroke-linecap="round"/>
<line x1="55.38" y1="100.01" x2="47.12" y2="71.17" stroke="red" stroke-width="2.0" stroke-linecap="round"/>
<line x1="47.12" y1="71.17" x2="67.86" y2="94.21" stroke="pink" stroke-width="2.0" stroke-linecap="round"/>
<line x1="67.86" y1="94.21" x2="40.01" y2="91.28" stroke="yellow" stroke-width="2.0" stroke-linecap="round"/>
<line x1="40.01" y1="91.28" x2="43.45" y2="113.01" stroke="white" stroke-width="2.0" stroke-linecap="round"/>
<line x1="43.45" y1="113.01" x2="73.08" y2="117.7" stroke="blue" stroke-width="2.0" stroke-linecap="round"/>
<line x1="73.08" y1="117.7" x2="73.08" y2="72.7" stroke="blue" stroke-width="2.0" stroke-linecap="round"/>
<line x1="73.08" y1="72.7" x2="91.47" y2="88.13" stroke="red" stroke-width="2.0" stroke-linecap="round"/>
<line x1="91.47" y1="88.13" x2="120.19" y2="92.17" stroke="white" stroke-width="2.0" stroke-linecap="round"/>
<line x1="120.19" y1="92.17" x2="126.17" y2="49.59" stroke="green" stroke-width="2.0" stroke-linecap="round"/>
<line x1="126.17" y1="49.59" x2="155.61" y2="24.0" stroke="red" stroke-width="2.0" stroke-linecap="round"/>
<line x1="155.61" y1="24.0" x2="136.89" y2="33.53" stroke="pink" stroke-width="2.0" stroke-linecap="round"/>
<line x1="136.89" y1="33.53" x2="154.23" y2="59.23" stroke="yellow" stroke-width="2.0" stroke-linecap="round"/>
<line x1="154.23" y1="59.23" x2="130.16" y2="91.18" stroke="blue" stroke-width="2.0" stroke-linecap="round"/>
<line x1="130.16" y1="91.18" x2="135.94" y2="70.99" stroke="green" stroke-width="2.0" stroke-linecap="round"/>
<line x1="135.94" y1="70.99" x2="179.2" y2="58.59" stroke="white" stroke-width="2.0" stroke-linecap="round"/>
<line x1="179.2" y1="58.59" x2="133.77" y2="51.39" stroke="green" stroke-width="2.0" stroke-linecap="round"/>
</svg>