<svg xmlns="http://www.w3.org/2000/svg" viewBox="0 0 248.0 248.0" width="248.0" height="248.0">
<rect x="0" y="0" width="248.0" height="248.0" fill="white"/>
<polygon points="124.0,224.0 146.25,221.49 167.39,214.1 186.35,202.18 202.18,186.35 214.1,167.39 221.49,146.25 224.0,124.0 221.49,101.75 214.1,80.61 202.18,61.65 186.35,45.82 167.39,33.9 146.25,26.51 124.0,24.0 101.75,26.51 80.61,33.9 61.65,45.82 45.82,61.65 33.9,80.61 26.51,101.75 24.0,124.0 26.51,146.25 33.9,167.39 45.82,186.35 61.65,202.18 80.61,214.1 101.75,221.49 124.0,224.0" fill="yellow"/>
<line x1="124.0" y1="224.0" x2="146.25" y2="221.49" stroke="black" stroke-width="5" stroke-linecap="round"/>
<line x1="146.25" y1="221.49" x2="167.39" y2="214.1" stroke="black" stroke-width="5" stroke-linecap="round"/>
<line x1="167.39" y1="214.1" x2="186.35" y2="202.18" stroke="black" stroke-width="5" stroke-linecap="round"/>
<line x1="186.35" y1="202.18" x2="202.18" y2="186.35" stroke="black" stroke-width="5" stroke-linecap="round"/>
<line x1="202.18" y1="186.35" x2="214.1" y2="167.39" stroke="black" stroke-width="5" stroke-linecap="round"/>
<line x1="214.1" y1="167.39" x2="221.49" y2="146.25" stroke="black" stroke-width="5" stroke-linecap="round"/>
<line x1="221.49" y1="146.25" x2="224.0" y2="124.0" stroke="black" stroke-width="5" stroke-linecap="round"/>
<line x1="224.0" y1="124.0" x2="221.49" y2="101.75" stroke="black" stroke-width="5" stroke-linecap="round"/>
<line x1="221.49" y1="101.75" x2="214.1" y2="80.61" stroke="black" stroke-width="5" stroke-linecap="round"/>
<line x1="214.1" y1="80.61" x2="202.18" y2="61.65" stroke="black" stroke-width="5" stroke-linecap="round"/>
<line x1="202.18" y1="61.65" x2="186.35" y2="45.82" stroke="black" stroke-width="5" stroke-linecap="round"/>
<line x1="186.35" y1="45.82" x2="167.39" y2="33.9" stroke="black" stroke-width="5" stroke-linecap="round"/>
<line x1="167.39" y1="33.9" x2="146.25" y2="26.51" stroke="black" stroke-width="5" stroke-linecap="round"/>
<line x1="146.25" y1="26.51" x2="124.0" y2="24.0" stroke="black" stroke-width="5" stroke-linecap="round"/>
<line x1="124.0" y1="24.0" x2="101.75" y2="26.51" stroke="black" stroke-width="5" stroke-linecap="round"/>
<line x1="101.75" y1="26.51" x2="80.61" y2="33.9" stroke="black" stroke-width="5" stroke-linecap="round"/>
<line x1="80.61" y1="33.9" x2="61.65" y2="45.82" stroke="black" stroke-width="5" stroke-linecap="round"/>
<line x1="61.65" y1="45.82" x2="45.82" y2="61.65" stroke="black" stroke-width="5" stroke-linecap="round"/>
<line x1="45.82" y1="61.65" x2="33.9" y2="80.61" stroke="black" stroke-width="5" stroke-linecap="round"/>
<line x1="33.9" y1="80.61" x2="26.51" y2="101.75" stroke="black" stroke-width="5" stroke-linecap="round"/>
<line x1="26.51" y1="101.75" x2="24.0" y2="124.0" stroke="black" stroke-width="5" stroke-linecap="round"/>
<line x1="24.0" y1="124.0" x2="26.51" y2="146.25" stroke="black" stroke-width="5" stroke-linecap="round"/>
<line x1="26.51" y1="146.25" x2="33.9" y2="167.39" stroke="black" stroke-width="5" stroke-linecap="round"/>
<line x1="33.9" y1="167.39" x2="45.82" y2="186.35" stroke="black" stroke-width="5" stroke-linecap="round"/>
<line x1="45.82" y1="186.35" x2="61.65" y2="202.18" stroke="black" stroke-width="5" stroke-linecap="round"/>
<line x1="61.65" y1="202.18" x2="80.61" y2="214.1" stroke="black" stroke-width="5" stroke-linecap="round"/>
<line x1="80.61" y1="214.1" x2="101.75" y2="221.49" stroke="black" stroke-width="5" stroke-linecap="round"/>
<line x1="101.75" y1="221.49" x2="124.0" y2="224.0" stroke="black" stroke-width="5" stroke-linecap="round"/>
<polygon points="89.0,94.0 95.51,92.51 100.73,88.35 103.62,82.34 103.62,75.66 100.73,69.65 95.51,65.49 89.0,64.0 82.49,65.49 77.27,69.65 74.38,75.66 74.38,82.34 77.27,88.35 82.49,92.51 89.0,94.0" fill="white"/>
<line x1="89.0" y1="94.0" x2="95.51" y2="92.51" stroke="black" stroke-width="3" stroke-linecap="round"/>
<line x1="95.51" y1="92.51" x2="100.73" y2="88.35" stroke="black" stroke-width="3" stroke-linecap="round"/>
<line x1="100.73" y1="88.35" x2="103.62" y2="82.34" stroke="black" stroke-width="3" stroke-linecap="round"/>
<line x1="103.62" y1="82.34" x2="103.62" y2="75.66" stroke="black" stroke-width="3" stroke-linecap="round"/>
<line x1="103.62" y1="75.66" x2="100.73" y2="69.65" stroke="black" stroke-width="3" stroke-linecap="round"/>
<line x1="100.73" y1="69.65" x2="95.51" y2="65.49" stroke="black" stroke-width="3" stroke-linecap="round"/>
<line x1="95.51" y1="65.49" x2="89.0" y2="64.0" stroke="black" stroke-width="3" stroke-linecap="round"/>
<line x1="89.0" y1="64.0" x2="82.49" y2="65.49" stroke="black" stroke-width="3" stroke-linecap="round"/>
<line x1="82.49" y1="65.49" x2="77.27" y2="69.65" stroke="black" stroke-width="3" stroke-linecap="round"/>
<line x1="77.27" y1="69.65" x2="74.38" y2="75.66" stroke="black" stroke-width="3" stroke-linecap="round"/>
<line x1="74.38" y1="75.66" x2="74.38" y2="82.34" stroke="black" stroke-width="3" stroke-linecap="round"/>
<line x1="74.38" y1="82.34" x2="77.27" y2="88.35" stroke="black" stroke-width="3" stroke-linecap="round"/>
<line x1="77.27" y1="88.35" x2="82.49" y2="92.51" stroke="black" stroke-width="3" stroke-linecap="round"/>
<line x1="82.49" y1="92.51" x2="89.0" y2="94.0" stroke="black" stroke-width="3" stroke-linecap="round"/>
<polygon points="159.0,94.0 165.51,92.51 170.73,88.35 173.62,82.34 173.62,75.66 170.73,69.65 165.51,65.49 159.0,64.0 152.49,65.49 147.27,69.65 144.38,75.66 144.38,82.34 147.27,88.35 152.49,92.51 159.0,94.0" fill="white"/>
<line x1="159.0" y1="94.0" x2="165.51" y2="92.51" stroke="black" stroke-width="3" stroke-linecap="round"/>
<line x1="165.51" y1="92.51" x2="170.73" y2="88.35" stroke="black" stroke-width="3" stroke-linecap="round"/>
<line x1="170.73" y1="88.35" x2="173.62" y2="82.34" stroke="black" stroke-width="3" stroke-linecap="round"/>
<line x1="173.62" y1="82.34" x2="173.62" y2="75.66" stroke="black" stroke-width="3" stroke-linecap="round"/>
<line x1="173.62" y1="75.66" x2="170.73" y2="69.65" stroke="black" stroke-width="3" stroke-linecap="round"/>
<line x1="170.73" y1="69.65" x2="165.51" y2="65.49" stroke="black" stroke-width="3" stroke-linecap="round"/>
<line x1="165.51" y1="65.49" x2="159.0" y2="64.0" stroke="black" stroke-width="3" stroke-linecap="round"/>
<line x1="159.0" y1="64.0" x2="152.49" y2="65.49" stroke="black" stroke-width="3" stroke-linecap="round"/>
<line x1="152.49" y1="65.49" x2="147.27" y2="69.65" stroke="black" stroke-width="3" stroke-linecap="round"/>
<line x1="147.27" y1="69.65" x2="144.38" y2="75.66" stroke="black" stroke-width="3" stroke-linecap="round"/>
<line x1="144.38" y1="75.66" x2="144.38" y2="82.34" stroke="black" stroke-width="3" stroke-linecap="round"/>
<line x1="144.38" y1="82.34" x2="147.27" y2="88.35" stroke="black" stroke-width="3" stroke-linecap="round"/>
<line x1="147.27" y1="88.35" x2="152.49" y2="92.51" stroke="black" stroke-width="3" stroke-linecap="round"/>
<line x1="152.49" y1="92.51" x2="159.0" y2="94.0" stroke="black" stroke-width="3" stroke-linecap="round"/>
<line x1="74.0" y1="144.0" x2="83.29" y2="155.65" stroke="black" stroke-width="5" stroke-linecap="round"/>
<line x1="83.29" y1="155.65" x2="95.61" y2="164.05" stroke="black" stroke-width="5" stroke-linecap="round"/>
<line x1="95.61" y1="164.05" x2="109.85" y2="168.44" stroke="black" stroke-width="5" stroke-linecap="round"/>
<line x1="109.85" y1="168.44" x2="124.75" y2="168.44" stroke="black" stroke-width="5" stroke-linecap="round"/>
<line x1="124.75" y1="168.44" x2="139.0" y2="164.05" stroke="black" stroke-width="5" stroke-linecap="round"/>
<line x1="139.0" y1="164.05" x2="151.31" y2="155.65" stroke="black" stroke-width="5" stroke-linecap="round"/>
<line x1="151.31" y1="155.65" x2="160.6" y2="144.0" stroke="black" stroke-width="5" stroke-linecap="round"/>
</svg>