<svg xmlns="http://www.w3.org/2000/svg" viewBox="0 0 422.2 428.0" width="422.2" height="428.0">
<rect x="0" y="0" width="422.2" height="428.0" fill="white"/>
<polygon points="211.11,314.0 233.37,311.49 254.5,304.1 273.46,292.18 289.3,276.35 301.21,257.39 308.61,236.25 311.11,214.0 308.61,191.75 301.21,170.61 289.3,151.65 273.46,135.82 254.5,123.9 233.37,116.51 211.11,114.0 188.86,116.51 167.73,123.9 148.76,135.82 132.93,151.65 121.02,170.61 113.62,191.75 111.11,214.0 113.62,236.25 121.02,257.39 132.93,276.35 148.76,292.18 167.73,304.1 188.86,311.49 211.11,314.0" fill="yellow"/>
<line x1="211.11" y1="314.0" x2="233.37" y2="311.49" stroke="orange" stroke-width="2.0" stroke-linecap="round"/>
<line x1="233.37" y1="311.49" x2="254.5" y2="304.1" stroke="orange" stroke-width="2.0" stroke-linecap="round"/>
<line x1="254.5" y1="304.1" x2="273.46" y2="292.18" stroke="orange" stroke-width="2.0" stroke-linecap="round"/>
<line x1="273.46" y1="292.18" x2="289.3" y2="276.35" stroke="orange" stroke-width="2.0" stroke-linecap="round"/>
<line x1="289.3" y1="276.35" x2="301.21" y2="257.39" stroke="orange" stroke-width="2.0" stroke-linecap="round"/>
<line x1="301.21" y1="257.39" x2="308.61" y2="236.25" stroke="orange" stroke-width="2.0" stroke-linecap="round"/>
<line x1="308.61" y1="236.25" x2="311.11" y2="214.0" stroke="orange" stroke-width="2.0" stroke-linecap="round"/>
<line x1="311.11" y1="214.0" x2="308.61" y2="191.75" stroke="orange" stroke-width="2.0" stroke-linecap="round"/>
<line x1="308.61" y1="191.75" x2="301.21" y2="170.61" stroke="orange" stroke-width="2.0" stroke-linecap="round"/>
<line x1="301.21" y1="170.61" x2="289.3" y2="151.65" stroke="orange" stroke-width="2.0" stroke-linecap="round"/>
<line x1="289.3" y1="151.65" x2="273.46" y2="135.82" stroke="orange" stroke-width="2.0" stroke-linecap="round"/>
<line x1="273.46" y1="135.82" x2="254.5" y2="123.9" stroke="orange" stroke-width="2.0" stroke-linecap="round"/>
<line x1="254.5" y1="123.9" x2="233.37" y2="116.51" stroke="orange" stroke-width="2.0" stroke-linecap="round"/>
<line x1="233.37" y1="116.51" x2="211.11" y2="114.0" stroke="orange" stroke-width="2.0" stroke-linecap="round"/>
<line x1="211.11" y1="114.0" x2="188.86" y2="116.51" stroke="orange" stroke-width="2.0" stroke-linecap="round"/>
<line x1="188.86" y1="116.51" x2="167.73" y2="123.9" stroke="orange" stroke-width="2.0" stroke-linecap="round"/>
<line x1="167.73" y1="123.9" x2="148.76" y2="135.82" stroke="orange" stroke-width="2.0" stroke-linecap="round"/>
<line x1="148.76" y1="135.82" x2="132.93" y2="151.65" stroke="orange" stroke-width="2.0" stroke-linecap="round"/>
<line x1="132.93" y1="151.65" x2="121.02" y2="170.61" stroke="orange" stroke-width="2.0" stroke-linecap="round"/>
<line x1="121.02" y1="170.61" x2="113.62" y2="191.75" stroke="orange" stroke-width="2.0" stroke-linecap="round"/>
<line x1="113.62" y1="191.75" x2="111.11" y2="214.0" stroke="orange" stroke-width="2.0" stroke-linecap="round"/>
<line x1="111.11" y1="214.0" x2="113.62" y2="236.25" stroke="orange" stroke-width="2.0" stroke-linecap="round"/>
<line x1="113.62" y1="236.25" x2="121.02" y2="257.39" stroke="orange" stroke-width="2.0" stroke-linecap="round"/>
<line x1="121.02" y1="257.39" x2="132.93" y2="276.35" stroke="orange" stroke-width="2.0" stroke-linecap="round"/>
<line x1="132.93" y1="276.35" x2="148.76" y2="292.18" stroke="orange" stroke-width="2.0" stroke-linecap="round"/>
<line x1="148.76" y1="292.18" x2="167.73" y2="304.1" stroke="orange" stroke-width="2.0" stroke-linecap="round"/>
<line x1="167.73" y1="304.1" x2="188.86" y2="311.49" stroke="orange" stroke-width="2.0" stroke-linecap="round"/>
<line x1="188.86" y1="311.49" x2="211.11" y2="314.0" stroke="orange" stroke-width="2.0" stroke-linecap="round"/>
<line x1="211.11" y1="314.0" x2="211.11" y2="404.0" stroke="orange" stroke-width="2.0" stroke-linecap="round"/>
<line x1="211.11" y1="404.0" x2="211.11" y2="314.0" stroke="orange" stroke-width="2.0" stroke-linecap="round"/>
<line x1="211.11" y1="314.0" x2="228.48" y2="312.48" stroke="orange" stroke-width="2.0" stroke-linecap="round"/>
<line x1="228.48" y1="312.48" x2="245.32" y2="307.97" stroke="orange" stroke-width="2.0" stroke-linecap="round"/>
<line x1="245.32" y1="307.97" x2="276.1" y2="392.54" stroke="orange" stroke-width="2.0" stroke-linecap="round"/>
<line x1="276.1" y1="392.54" x2="245.32" y2="307.97" stroke="orange" stroke-width="2.0" stroke-linecap="round"/>
<line x1="245.32" y1="307.97" x2="261.11" y2="300.6" stroke="orange" stroke-width="2.0" stroke-linecap="round"/>
<line x1="261.11" y1="300.6" x2="275.39" y2="290.6" stroke="orange" stroke-width="2.0" stroke-linecap="round"/>
<line x1="275.39" y1="290.6" x2="333.24" y2="359.55" stroke="orange" stroke-width="2.0" stroke-linecap="round"/>
<line x1="333.24" y1="359.55" x2="275.39" y2="290.6" stroke="orange" stroke-width="2.0" stroke-linecap="round"/>
<line x1="275.39" y1="290.6" x2="287.72" y2="278.28" stroke="orange" stroke-width="2.0" stroke-linecap="round"/>
<line x1="287.72" y1="278.28" x2="297.72" y2="264.0" stroke="orange" stroke-width="2.0" stroke-linecap="round"/>
<line x1="297.72" y1="264.0" x2="375.66" y2="309.0" stroke="orange" stroke-width="2.0" stroke-linecap="round"/>
<line x1="375.66" y1="309.0" x2="297.72" y2="264.0" stroke="orange" stroke-width="2.0" stroke-linecap="round"/>
<line x1="297.72" y1="264.0" x2="305.08" y2="248.2" stroke="orange" stroke-width="2.0" stroke-linecap="round"/>
<line x1="305.08" y1="248.2" x2="309.59" y2="231.36" stroke="orange" stroke-width="2.0" stroke-linecap="round"/>
<line x1="309.59" y1="231.36" x2="398.23" y2="246.99" stroke="orange" stroke-width="2.0" stroke-linecap="round"/>
<line x1="398.23" y1="246.99" x2="309.59" y2="231.36" stroke="orange" stroke-width="2.0" stroke-linecap="round"/>
<line x1="309.59" y1="231.36" x2="311.11" y2="214.0" stroke="orange" stroke-width="2.0" stroke-linecap="round"/>
<line x1="311.11" y1="214.0" x2="309.59" y2="196.64" stroke="orange" stroke-width="2.0" stroke-linecap="round"/>
<line x1="309.59" y1="196.64" x2="398.23" y2="181.01" stroke="orange" stroke-width="2.0" stroke-linecap="round"/>
<line x1="398.23" y1="181.01" x2="309.59" y2="196.64" stroke="orange" stroke-width="2.0" stroke-linecap="round"/>
<line x1="309.59" y1="196.64" x2="305.08" y2="179.8" stroke="orange" stroke-width="2.0" stroke-linecap="round"/>
<line x1="305.08" y1="179.8" x2="297.72" y2="164.0" stroke="orange" stroke-width="2.0" stroke-linecap="round"/>
<line x1="297.72" y1="164.0" x2="375.66" y2="119.0" stroke="orange" stroke-width="2.0" stroke-linecap="round"/>
<line x1="375.66" y1="119.0" x2="297.72" y2="164.0" stroke="orange" stroke-width="2.0" stroke-linecap="round"/>
<line x1="297.72" y1="164.0" x2="287.72" y2="149.72" stroke="orange" stroke-width="2.0" stroke-linecap="round"/>
<line x1="287.72" y1="149.72" x2="275.39" y2="137.4" stroke="orange" stroke-width="2.0" stroke-linecap="round"/>
<line x1="275.39" y1="137.4" x2="333.24" y2="68.45" stroke="orange" stroke-width="2.0" stroke-linecap="round"/>
<line x1="333.24" y1="68.45" x2="275.39" y2="137.4" stroke="orange" stroke-width="2.0" stroke-linecap="round"/>
<line x1="275.39" y1="137.4" x2="261.11" y2="127.4" stroke="orange" stroke-width="2.0" stroke-linecap="round"/>
<line x1="261.11" y1="127.4" x2="245.32" y2="120.03" stroke="orange" stroke-width="2.0" stroke-linecap="round"/>
<line x1="245.32" y1="120.03" x2="276.1" y2="35.46" stroke="orange" stroke-width="2.0" stroke-linecap="round"/>
<line x1="276.1" y1="35.46" x2="245.32" y2="120.03" stroke="orange" stroke-width="2.0" stroke-linecap="round"/>
<line x1="245.32" y1="120.03" x2="228.48" y2="115.52" stroke="orange" stroke-width="2.0" stroke-linecap="round"/>
<line x1="228.48" y1="115.52" x2="211.11" y2="114.0" stroke="orange" stroke-width="2.0" stroke-linecap="round"/>
<line x1="211.11" y1="114.0" x2="211.11" y2="24.0" stroke="orange" stroke-width="2.0" stroke-linecap="round"/>
<line x1="211.11" y1="24.0" x2="211.11" y2="114.0" stroke="orange" stroke-width="2.0" stroke-linecap="round"/>
<line x1="211.11" y1="114.0" x2="193.75" y2="115.52" stroke="orange" stroke-width="2.0" stroke-linecap="round"/>
<line x1="193.75" y1="115.52" x2="176.91" y2="120.03" stroke="orange" stroke-width="2.0" stroke-linecap="round"/>
<line x1="176.91" y1="120.03" x2="146.13" y2="35.46" stroke="orange" stroke-width="2.0" stroke-linecap="round"/>
<line x1="146.13" y1="35.46" x2="176.91" y2="120.03" stroke="orange" stroke-width="2.0" stroke-linecap="round"/>
<line x1="176.91" y1="120.03" x2="161.11" y2="127.4" stroke="orange" stroke-width="2.0" stroke-linecap="round"/>
<line x1="161.11" y1="127.4" x2="146.83" y2="137.4" stroke="orange" stroke-width="2.0" stroke-linecap="round"/>
<line x1="146.83" y1="137.4" x2="88.98" y2="68.45" stroke="orange" stroke-width="2.0" stroke-linecap="round"/>
<line x1="88.98" y1="68.45" x2="146.83" y2="137.4" stroke="orange" stroke-width="2.0" stroke-linecap="round"/>
<line x1="146.83" y1="137.4" x2="134.51" y2="149.72" stroke="orange" stroke-width="2.0" stroke-linecap="round"/>
<line x1="134.51" y1="149.72" x2="124.51" y2="164.0" stroke="orange" stroke-width="2.0" stroke-linecap="round"/>
<line x1="124.51" y1="164.0" x2="46.57" y2="119.0" stroke="orange" stroke-width="2.0" stroke-linecap="round"/>
<line x1="46.57" y1="119.0" x2="124.51" y2="164.0" stroke="orange" stroke-width="2.0" stroke-linecap="round"/>
<line x1="124.51" y1="164.0" x2="117.14" y2="179.8" stroke="orange" stroke-width="2.0" stroke-linecap="round"/>
<line x1="117.14" y1="179.8" x2="112.63" y2="196.64" stroke="orange" stroke-width="2.0" stroke-linecap="round"/>
<line x1="112.63" y1="196.64" x2="24.0" y2="181.01" stroke="orange" stroke-width="2.0" stroke-linecap="round"/>
<line x1="24.0" y1="181.01" x2="112.63" y2="196.64" stroke="orange" stroke-width="2.0" stroke-linecap="round"/>
<line x1="112.63" y1="196.64" x2="111.11" y2="214.0" stroke="orange" stroke-width="2.0" stroke-linecap="round"/>
<line x1="111.11" y1="214.0" x2="112.63" y2="231.36" stroke="orange" stroke-width="2.0" stroke-linecap="round"/>
<line x1="112.63" y1="231.36" x2="24.0" y2="246.99" stroke="orange" stroke-width="2.0" stroke-linecap="round"/>
<line x1="24.0" y1="246.99" x2="112.63" y2="231.36" stroke="orange" stroke-width="2.0" stroke-linecap="round"/>
<line x1="112.63" y1="231.36" x2="117.14" y2="248.2" stroke="orange" stroke-width="2.0" stroke-linecap="round"/>
<line x1="117.14" y1="248.2" x2="124.51" y2="264.0" stroke="orange" stroke-width="2.0" stroke-linecap="round"/>
<line x1="124.51" y1="264.0" x2="46.57" y2="309.0" stroke="orange" stroke-width="2.0" stroke-linecap="round"/>
<line x1="46.57" y1="309.0" x2="124.51" y2="264.0" stroke="orange" stroke-width="2.0" stroke-linecap="round"/>
<line x1="124.51" y1="264.0" x2="134.51" y2="278.28" stroke="orange" stroke-width="2.0" stroke-linecap="round"/>
<line x1="134.51" y1="278.28" x2="146.83" y2="290.6" stroke="orange" stroke-width="2.0" stroke-linecap="round"/>
<line x1="146.83" y1="290.6" x2="88.98" y2="359.55" stroke="orange" stroke-width="2.0" stroke-linecap="round"/>
<line x1="88.98" y1="359.55" x2="146.83" y2="290.6" stroke="orange" stroke-width="2.0" stroke-linecap="round"/>
<line x1="146.83" y1="290.6" x2="161.11" y2="300.6" stroke="orange" stroke-width="2.0" stroke-linecap="round"/>
<line x1="161.11" y1="300.6" x2="176.91" y2="307.97" stroke="orange" stroke-width="2.0" stroke-linecap="round"/>
<line x1="176.91" y1="307.97" x2="146.13" y2="392.54" stroke="orange" stroke-width="2.0" stroke-linecap="round"/>
<line x1="146.13" y1="392.54" x2="176.91" y2="307.97" stroke="orange" stroke-width="2.0" stroke-linecap="round"/>
<line x1="176.91" y1="307.97" x2="193.75" y2="312.48" stroke="orange" stroke-width="2.0" stroke-linecap="round"/>
<line x1="193.75" y1="312.48" x2="211.11" y2="314.0" stroke="orange" stroke-width="2.0" stroke-linecap="round"/>
</svg>